<svg xmlns="http://www.w3.org/2000/svg" xmlns:xlink="http://www.w3.org/1999/xlink" width="500" zoomAndPan="magnify" viewBox="0 0 375 374.999991" height="500" preserveAspectRatio="xMidYMid meet" version="1.0"><defs><filter x="0%" y="0%" width="100%" height="100%" id="8d2c70e49a"><feColorMatrix values="0 0 0 0 1 0 0 0 0 1 0 0 0 0 1 0 0 0 1 0" color-interpolation-filters="sRGB"/></filter><g/><mask id="3cd8ce1137"><g filter="url(#8d2c70e49a)"><rect x="-37.5" width="450" fill="#000000" y="-37.499999" height="449.999989" fill-opacity="0.47"/></g></mask><clipPath id="2df1f5354e"><path d="M 0.546875 0.546875 L 210.453125 0.546875 L 210.453125 210.453125 L 0.546875 210.453125 Z M 0.546875 0.546875 " clip-rule="nonzero"/></clipPath><clipPath id="2fd28b5757"><path d="M 105.5 0.546875 C 47.535156 0.546875 0.546875 47.535156 0.546875 105.5 C 0.546875 163.464844 47.535156 210.453125 105.5 210.453125 C 163.464844 210.453125 210.453125 163.464844 210.453125 105.5 C 210.453125 47.535156 163.464844 0.546875 105.5 0.546875 Z M 105.5 0.546875 " clip-rule="nonzero"/></clipPath><clipPath id="b51d193e66"><rect x="0" width="211" y="0" height="211"/></clipPath></defs><g mask="url(#3cd8ce1137)"><g transform="matrix(1, 0, 0, 1, 82, 82)"><g clip-path="url(#b51d193e66)"><g clip-path="url(#2df1f5354e)"><g clip-path="url(#2fd28b5757)"><path fill="#000000" d="M 0.546875 0.546875 L 210.453125 0.546875 L 210.453125 210.453125 L 0.546875 210.453125 Z M 0.546875 0.546875 " fill-opacity="1" fill-rule="nonzero"/></g></g><g fill="#000000" fill-opacity="1"><g transform="translate(58.509632, 107.798686)"><g><path d="M 1.046875 -0.453125 C 1.003906 -0.222656 0.863281 -0.109375 0.625 -0.109375 C 0.601562 -0.109375 0.582031 -0.109375 0.5625 -0.109375 C 0.445312 -0.128906 0.351562 -0.1875 0.28125 -0.28125 C 0.21875 -0.375 0.195312 -0.476562 0.21875 -0.59375 L 1.890625 -11.421875 C 1.898438 -11.535156 1.953125 -11.625 2.046875 -11.6875 C 2.140625 -11.757812 2.242188 -11.785156 2.359375 -11.765625 C 2.472656 -11.753906 2.5625 -11.695312 2.625 -11.59375 C 2.695312 -11.5 2.726562 -11.394531 2.71875 -11.28125 Z M 1.046875 -0.453125 "/></g></g></g><g fill="#000000" fill-opacity="1"><g transform="translate(61.432281, 107.798686)"><g><path d="M 6.765625 -4.953125 C 5.679688 -1.617188 4.351562 0.046875 2.78125 0.046875 C 2.695312 0.046875 2.609375 0.0390625 2.515625 0.03125 C 2.015625 -0.0195312 1.601562 -0.289062 1.28125 -0.78125 C 0.976562 -1.207031 0.773438 -1.734375 0.671875 -2.359375 C 0.578125 -2.992188 0.550781 -3.648438 0.59375 -4.328125 C 0.632812 -5.003906 0.734375 -5.617188 0.890625 -6.171875 C 1.640625 -8.910156 2.632812 -10.628906 3.875 -11.328125 C 4.238281 -11.523438 4.578125 -11.625 4.890625 -11.625 C 5.210938 -11.632812 5.476562 -11.613281 5.6875 -11.5625 C 6.269531 -11.394531 6.707031 -11.03125 7 -10.46875 C 7.1875 -10.113281 7.300781 -9.707031 7.34375 -9.25 C 7.394531 -8.800781 7.398438 -8.34375 7.359375 -7.875 C 7.328125 -7.414062 7.269531 -6.976562 7.1875 -6.5625 C 7.101562 -6.15625 7.019531 -5.8125 6.9375 -5.53125 C 6.851562 -5.25 6.800781 -5.070312 6.78125 -5 Z M 5.453125 -10.75 C 5.316406 -10.789062 5.1875 -10.8125 5.0625 -10.8125 C 4.800781 -10.8125 4.539062 -10.738281 4.28125 -10.59375 C 4.039062 -10.457031 3.773438 -10.222656 3.484375 -9.890625 C 3.203125 -9.566406 2.90625 -9.085938 2.59375 -8.453125 C 2.28125 -7.828125 1.984375 -6.992188 1.703125 -5.953125 C 1.546875 -5.378906 1.453125 -4.789062 1.421875 -4.1875 C 1.390625 -3.582031 1.421875 -3.019531 1.515625 -2.5 C 1.617188 -1.976562 1.769531 -1.566406 1.96875 -1.265625 C 2.15625 -0.984375 2.375 -0.828125 2.625 -0.796875 C 2.832031 -0.773438 3.0625 -0.816406 3.3125 -0.921875 C 3.570312 -1.023438 3.847656 -1.226562 4.140625 -1.53125 C 4.429688 -1.84375 4.734375 -2.296875 5.046875 -2.890625 C 5.359375 -3.484375 5.664062 -4.257812 5.96875 -5.21875 L 5.984375 -5.265625 C 6.085938 -5.578125 6.1875 -5.941406 6.28125 -6.359375 C 6.375 -6.773438 6.445312 -7.210938 6.5 -7.671875 C 6.5625 -8.128906 6.578125 -8.566406 6.546875 -8.984375 C 6.515625 -9.410156 6.414062 -9.773438 6.25 -10.078125 C 6.070312 -10.421875 5.804688 -10.644531 5.453125 -10.75 Z M 5.453125 -10.75 "/></g></g></g><g fill="#000000" fill-opacity="1"><g transform="translate(69.316641, 107.798686)"><g><path d="M 6.765625 -4.953125 C 5.679688 -1.617188 4.351562 0.046875 2.78125 0.046875 C 2.695312 0.046875 2.609375 0.0390625 2.515625 0.03125 C 2.015625 -0.0195312 1.601562 -0.289062 1.28125 -0.78125 C 0.976562 -1.207031 0.773438 -1.734375 0.671875 -2.359375 C 0.578125 -2.992188 0.550781 -3.648438 0.59375 -4.328125 C 0.632812 -5.003906 0.734375 -5.617188 0.890625 -6.171875 C 1.640625 -8.910156 2.632812 -10.628906 3.875 -11.328125 C 4.238281 -11.523438 4.578125 -11.625 4.890625 -11.625 C 5.210938 -11.632812 5.476562 -11.613281 5.6875 -11.5625 C 6.269531 -11.394531 6.707031 -11.03125 7 -10.46875 C 7.1875 -10.113281 7.300781 -9.707031 7.34375 -9.25 C 7.394531 -8.800781 7.398438 -8.34375 7.359375 -7.875 C 7.328125 -7.414062 7.269531 -6.976562 7.1875 -6.5625 C 7.101562 -6.15625 7.019531 -5.8125 6.9375 -5.53125 C 6.851562 -5.25 6.800781 -5.070312 6.78125 -5 Z M 5.453125 -10.75 C 5.316406 -10.789062 5.1875 -10.8125 5.0625 -10.8125 C 4.800781 -10.8125 4.539062 -10.738281 4.28125 -10.59375 C 4.039062 -10.457031 3.773438 -10.222656 3.484375 -9.890625 C 3.203125 -9.566406 2.90625 -9.085938 2.59375 -8.453125 C 2.28125 -7.828125 1.984375 -6.992188 1.703125 -5.953125 C 1.546875 -5.378906 1.453125 -4.789062 1.421875 -4.1875 C 1.390625 -3.582031 1.421875 -3.019531 1.515625 -2.5 C 1.617188 -1.976562 1.769531 -1.566406 1.96875 -1.265625 C 2.15625 -0.984375 2.375 -0.828125 2.625 -0.796875 C 2.832031 -0.773438 3.0625 -0.816406 3.3125 -0.921875 C 3.570312 -1.023438 3.847656 -1.226562 4.140625 -1.53125 C 4.429688 -1.84375 4.734375 -2.296875 5.046875 -2.890625 C 5.359375 -3.484375 5.664062 -4.257812 5.96875 -5.21875 L 5.984375 -5.265625 C 6.085938 -5.578125 6.1875 -5.941406 6.28125 -6.359375 C 6.375 -6.773438 6.445312 -7.210938 6.5 -7.671875 C 6.5625 -8.128906 6.578125 -8.566406 6.546875 -8.984375 C 6.515625 -9.410156 6.414062 -9.773438 6.25 -10.078125 C 6.070312 -10.421875 5.804688 -10.644531 5.453125 -10.75 Z M 5.453125 -10.75 "/></g></g></g><g fill="#000000" fill-opacity="1"><g transform="translate(77.201002, 107.798686)"><g/></g></g><g fill="#000000" fill-opacity="1"><g transform="translate(81.805875, 107.798686)"><g><path d="M 6.140625 -11.625 C 6.242188 -11.582031 6.3125 -11.503906 6.34375 -11.390625 C 6.375 -11.273438 6.367188 -11.164062 6.328125 -11.0625 L 1.109375 -0.734375 C 1.023438 -0.578125 0.894531 -0.5 0.71875 -0.5 C 0.65625 -0.5 0.59375 -0.515625 0.53125 -0.546875 C 0.425781 -0.585938 0.351562 -0.664062 0.3125 -0.78125 C 0.28125 -0.894531 0.289062 -1.003906 0.34375 -1.109375 L 5.5625 -11.4375 C 5.613281 -11.539062 5.695312 -11.613281 5.8125 -11.65625 C 5.925781 -11.695312 6.035156 -11.6875 6.140625 -11.625 Z M 2.46875 -8.21875 C 2.101562 -8.21875 1.789062 -8.363281 1.53125 -8.65625 C 1.28125 -8.957031 1.15625 -9.316406 1.15625 -9.734375 C 1.15625 -10.171875 1.28125 -10.535156 1.53125 -10.828125 C 1.789062 -11.128906 2.101562 -11.28125 2.46875 -11.28125 C 2.8125 -11.28125 3.109375 -11.128906 3.359375 -10.828125 C 3.617188 -10.535156 3.75 -10.171875 3.75 -9.734375 C 3.75 -9.316406 3.617188 -8.957031 3.359375 -8.65625 C 3.109375 -8.363281 2.8125 -8.21875 2.46875 -8.21875 Z M 2.46875 -10.453125 C 2.351562 -10.453125 2.242188 -10.382812 2.140625 -10.25 C 2.046875 -10.125 2 -9.953125 2 -9.734375 C 2 -9.535156 2.046875 -9.367188 2.140625 -9.234375 C 2.242188 -9.109375 2.351562 -9.046875 2.46875 -9.046875 C 2.570312 -9.046875 2.671875 -9.109375 2.765625 -9.234375 C 2.859375 -9.367188 2.90625 -9.535156 2.90625 -9.734375 C 2.90625 -9.953125 2.859375 -10.125 2.765625 -10.25 C 2.671875 -10.382812 2.570312 -10.453125 2.46875 -10.453125 Z M 4.203125 -3.84375 C 4.566406 -3.84375 4.875 -3.691406 5.125 -3.390625 C 5.382812 -3.085938 5.515625 -2.726562 5.515625 -2.3125 C 5.515625 -1.882812 5.382812 -1.519531 5.125 -1.21875 C 4.875 -0.914062 4.566406 -0.765625 4.203125 -0.765625 C 3.847656 -0.765625 3.539062 -0.914062 3.28125 -1.21875 C 3.03125 -1.519531 2.90625 -1.882812 2.90625 -2.3125 C 2.90625 -2.726562 3.03125 -3.085938 3.28125 -3.390625 C 3.539062 -3.691406 3.847656 -3.84375 4.203125 -3.84375 Z M 4.203125 -1.59375 C 4.316406 -1.59375 4.421875 -1.65625 4.515625 -1.78125 C 4.609375 -1.914062 4.65625 -2.09375 4.65625 -2.3125 C 4.65625 -2.519531 4.609375 -2.6875 4.515625 -2.8125 C 4.421875 -2.945312 4.316406 -3.015625 4.203125 -3.015625 C 4.097656 -3.015625 3.992188 -2.945312 3.890625 -2.8125 C 3.796875 -2.6875 3.75 -2.519531 3.75 -2.3125 C 3.75 -2.09375 3.796875 -1.914062 3.890625 -1.78125 C 3.992188 -1.65625 4.097656 -1.59375 4.203125 -1.59375 Z M 4.203125 -1.59375 "/></g></g></g><g fill="#000000" fill-opacity="1"><g transform="translate(88.585744, 107.798686)"><g/></g></g><g fill="#000000" fill-opacity="1"><g transform="translate(93.190617, 107.798686)"><g><path d="M 2.46875 -11.390625 C 2.90625 -11.679688 3.347656 -11.84375 3.796875 -11.875 C 4.242188 -11.914062 4.675781 -11.875 5.09375 -11.75 C 5.507812 -11.625 5.878906 -11.460938 6.203125 -11.265625 C 6.535156 -11.066406 6.796875 -10.867188 6.984375 -10.671875 C 7.078125 -10.597656 7.125 -10.5 7.125 -10.375 C 7.125 -10.257812 7.082031 -10.15625 7 -10.0625 C 6.925781 -9.976562 6.828125 -9.929688 6.703125 -9.921875 C 6.585938 -9.921875 6.488281 -9.960938 6.40625 -10.046875 C 6.382812 -10.066406 6.304688 -10.128906 6.171875 -10.234375 C 6.035156 -10.347656 5.847656 -10.472656 5.609375 -10.609375 C 5.378906 -10.742188 5.117188 -10.851562 4.828125 -10.9375 C 4.546875 -11.03125 4.242188 -11.0625 3.921875 -11.03125 C 3.597656 -11.007812 3.269531 -10.890625 2.9375 -10.671875 C 2.476562 -10.367188 2.21875 -9.96875 2.15625 -9.46875 C 2.125 -9.0625 2.226562 -8.613281 2.46875 -8.125 C 2.71875 -7.644531 3.082031 -7.171875 3.5625 -6.703125 C 4 -6.296875 4.40625 -5.875 4.78125 -5.4375 C 5.164062 -5.007812 5.484375 -4.582031 5.734375 -4.15625 C 5.992188 -3.726562 6.144531 -3.304688 6.1875 -2.890625 C 6.226562 -2.472656 6.125 -2.066406 5.875 -1.671875 C 5.632812 -1.234375 5.304688 -0.882812 4.890625 -0.625 C 4.484375 -0.375 4.035156 -0.222656 3.546875 -0.171875 C 3.453125 -0.171875 3.351562 -0.171875 3.25 -0.171875 C 2.070312 -0.171875 0.960938 -0.738281 -0.078125 -1.875 C -0.160156 -1.957031 -0.195312 -2.054688 -0.1875 -2.171875 C -0.1875 -2.296875 -0.140625 -2.398438 -0.046875 -2.484375 C 0.0351562 -2.554688 0.132812 -2.585938 0.25 -2.578125 C 0.375 -2.578125 0.476562 -2.535156 0.5625 -2.453125 C 1.007812 -1.941406 1.484375 -1.5625 1.984375 -1.3125 C 2.492188 -1.070312 2.988281 -0.976562 3.46875 -1.03125 C 4.207031 -1.101562 4.769531 -1.460938 5.15625 -2.109375 C 5.445312 -2.585938 5.375 -3.148438 4.9375 -3.796875 C 4.507812 -4.453125 3.851562 -5.21875 2.96875 -6.09375 C 2.382812 -6.664062 1.945312 -7.25 1.65625 -7.84375 C 1.375 -8.4375 1.257812 -9.003906 1.3125 -9.546875 C 1.382812 -10.304688 1.769531 -10.921875 2.46875 -11.390625 Z M 2.46875 -11.390625 "/></g></g></g><g fill="#000000" fill-opacity="1"><g transform="translate(100.344307, 107.798686)"><g><path d="M 5.515625 -5.875 C 5.609375 -5.851562 5.679688 -5.796875 5.734375 -5.703125 C 5.796875 -5.617188 5.816406 -5.523438 5.796875 -5.421875 L 4.984375 -0.5 C 4.953125 -0.257812 4.816406 -0.140625 4.578125 -0.140625 C 4.546875 -0.140625 4.519531 -0.144531 4.5 -0.15625 C 4.382812 -0.164062 4.289062 -0.21875 4.21875 -0.3125 C 4.15625 -0.40625 4.140625 -0.507812 4.171875 -0.625 L 4.515625 -2.8125 C 4.117188 -2.113281 3.703125 -1.515625 3.265625 -1.015625 C 2.835938 -0.523438 2.40625 -0.257812 1.96875 -0.21875 C 1.5625 -0.1875 1.226562 -0.351562 0.96875 -0.71875 C 0.800781 -0.957031 0.703125 -1.269531 0.671875 -1.65625 C 0.640625 -2.039062 0.644531 -2.4375 0.6875 -2.84375 C 0.738281 -3.257812 0.789062 -3.617188 0.84375 -3.921875 C 0.9375 -4.378906 1.007812 -4.757812 1.0625 -5.0625 C 1.125 -5.375 1.15625 -5.53125 1.15625 -5.53125 C 1.175781 -5.632812 1.234375 -5.722656 1.328125 -5.796875 C 1.429688 -5.867188 1.539062 -5.890625 1.65625 -5.859375 C 1.757812 -5.835938 1.84375 -5.78125 1.90625 -5.6875 C 1.976562 -5.59375 2.003906 -5.488281 1.984375 -5.375 C 1.984375 -5.375 1.953125 -5.21875 1.890625 -4.90625 C 1.835938 -4.601562 1.769531 -4.21875 1.6875 -3.75 C 1.5625 -3.082031 1.5 -2.519531 1.5 -2.0625 C 1.507812 -1.613281 1.5625 -1.328125 1.65625 -1.203125 C 1.707031 -1.128906 1.753906 -1.082031 1.796875 -1.0625 C 1.835938 -1.050781 1.867188 -1.054688 1.890625 -1.078125 C 2.066406 -1.085938 2.304688 -1.242188 2.609375 -1.546875 C 2.910156 -1.847656 3.257812 -2.332031 3.65625 -3 C 4.0625 -3.664062 4.507812 -4.550781 5 -5.65625 C 5.039062 -5.75 5.109375 -5.816406 5.203125 -5.859375 C 5.304688 -5.910156 5.410156 -5.914062 5.515625 -5.875 Z M 5.515625 -5.875 "/></g></g></g><g fill="#000000" fill-opacity="1"><g transform="translate(106.512455, 107.798686)"><g><path d="M 1.984375 -4.828125 C 1.867188 -4.773438 1.796875 -4.71875 1.765625 -4.65625 C 1.734375 -4.59375 1.71875 -4.53125 1.71875 -4.46875 C 1.6875 -4.289062 1.773438 -4.125 1.984375 -3.96875 C 2.203125 -3.8125 2.554688 -3.628906 3.046875 -3.421875 C 3.460938 -3.234375 3.773438 -3.035156 3.984375 -2.828125 C 4.203125 -2.617188 4.351562 -2.414062 4.4375 -2.21875 C 4.519531 -2.03125 4.566406 -1.875 4.578125 -1.75 C 4.609375 -1.257812 4.414062 -0.878906 4 -0.609375 C 3.613281 -0.367188 3.1875 -0.25 2.71875 -0.25 C 2.5 -0.25 2.296875 -0.273438 2.109375 -0.328125 C 1.378906 -0.515625 0.828125 -0.972656 0.453125 -1.703125 C 0.398438 -1.804688 0.390625 -1.910156 0.421875 -2.015625 C 0.453125 -2.128906 0.519531 -2.210938 0.625 -2.265625 C 0.726562 -2.316406 0.835938 -2.328125 0.953125 -2.296875 C 1.066406 -2.265625 1.144531 -2.195312 1.1875 -2.09375 C 1.457031 -1.582031 1.832031 -1.265625 2.3125 -1.140625 C 2.75 -1.023438 3.15625 -1.085938 3.53125 -1.328125 C 3.675781 -1.421875 3.742188 -1.539062 3.734375 -1.6875 C 3.722656 -1.851562 3.625 -2.019531 3.4375 -2.1875 C 3.257812 -2.363281 3.015625 -2.519531 2.703125 -2.65625 C 2.410156 -2.789062 2.113281 -2.9375 1.8125 -3.09375 C 1.507812 -3.257812 1.265625 -3.460938 1.078125 -3.703125 C 0.890625 -3.953125 0.828125 -4.253906 0.890625 -4.609375 C 0.953125 -5.035156 1.1875 -5.351562 1.59375 -5.5625 C 1.9375 -5.738281 2.332031 -5.816406 2.78125 -5.796875 C 3.226562 -5.785156 3.597656 -5.710938 3.890625 -5.578125 C 4.359375 -5.347656 4.707031 -5.09375 4.9375 -4.8125 C 5 -4.71875 5.019531 -4.613281 5 -4.5 C 4.988281 -4.382812 4.9375 -4.296875 4.84375 -4.234375 C 4.75 -4.148438 4.644531 -4.117188 4.53125 -4.140625 C 4.425781 -4.160156 4.335938 -4.210938 4.265625 -4.296875 C 4.210938 -4.359375 4.128906 -4.429688 4.015625 -4.515625 C 3.910156 -4.609375 3.75 -4.707031 3.53125 -4.8125 C 3.34375 -4.90625 3.085938 -4.957031 2.765625 -4.96875 C 2.453125 -4.976562 2.191406 -4.929688 1.984375 -4.828125 Z M 1.984375 -4.828125 "/></g></g></g><g fill="#000000" fill-opacity="1"><g transform="translate(111.847988, 107.798686)"><g><path d="M 4.890625 -5.90625 C 5.003906 -5.90625 5.097656 -5.863281 5.171875 -5.78125 C 5.253906 -5.695312 5.296875 -5.597656 5.296875 -5.484375 C 5.296875 -5.359375 5.253906 -5.253906 5.171875 -5.171875 C 5.097656 -5.097656 5.003906 -5.0625 4.890625 -5.0625 L 3.34375 -5.0625 L 2.546875 -0.5 C 2.503906 -0.257812 2.363281 -0.140625 2.125 -0.140625 C 2.101562 -0.140625 2.082031 -0.144531 2.0625 -0.15625 C 1.945312 -0.164062 1.851562 -0.21875 1.78125 -0.3125 C 1.71875 -0.40625 1.695312 -0.507812 1.71875 -0.625 L 2.5 -5.0625 L 1.046875 -5.0625 C 0.941406 -5.0625 0.847656 -5.097656 0.765625 -5.171875 C 0.679688 -5.253906 0.640625 -5.359375 0.640625 -5.484375 C 0.640625 -5.597656 0.679688 -5.695312 0.765625 -5.78125 C 0.847656 -5.863281 0.941406 -5.90625 1.046875 -5.90625 L 2.65625 -5.90625 L 3.640625 -11.53125 C 3.660156 -11.644531 3.71875 -11.734375 3.8125 -11.796875 C 3.914062 -11.867188 4.019531 -11.890625 4.125 -11.859375 C 4.238281 -11.835938 4.328125 -11.78125 4.390625 -11.6875 C 4.460938 -11.601562 4.488281 -11.5 4.46875 -11.375 L 3.5 -5.90625 Z M 4.890625 -5.90625 "/></g></g></g><g fill="#000000" fill-opacity="1"><g transform="translate(116.945632, 107.798686)"><g><path d="M 5.515625 -5.6875 C 5.609375 -5.65625 5.679688 -5.597656 5.734375 -5.515625 C 5.796875 -5.429688 5.820312 -5.335938 5.8125 -5.234375 L 5.0625 -0.28125 C 5.039062 -0.175781 4.984375 -0.0859375 4.890625 -0.015625 C 4.804688 0.046875 4.707031 0.0664062 4.59375 0.046875 C 4.46875 0.0351562 4.367188 -0.015625 4.296875 -0.109375 C 4.234375 -0.203125 4.210938 -0.304688 4.234375 -0.421875 L 4.609375 -2.859375 C 4.328125 -2.378906 4.007812 -1.914062 3.65625 -1.46875 C 3.3125 -1.019531 2.953125 -0.648438 2.578125 -0.359375 C 2.203125 -0.078125 1.832031 0.0625 1.46875 0.0625 C 1.394531 0.0625 1.332031 0.0546875 1.28125 0.046875 C 0.863281 -0.00390625 0.585938 -0.265625 0.453125 -0.734375 C 0.359375 -1.097656 0.351562 -1.535156 0.4375 -2.046875 C 0.53125 -2.566406 0.71875 -3.09375 1 -3.625 C 1.289062 -4.164062 1.671875 -4.644531 2.140625 -5.0625 C 2.734375 -5.582031 3.320312 -5.789062 3.90625 -5.6875 C 4.113281 -5.65625 4.296875 -5.59375 4.453125 -5.5 C 4.617188 -5.414062 4.765625 -5.316406 4.890625 -5.203125 C 4.929688 -5.285156 4.972656 -5.367188 5.015625 -5.453125 C 5.117188 -5.679688 5.285156 -5.757812 5.515625 -5.6875 Z M 1.390625 -0.78125 C 1.660156 -0.75 2.078125 -1.019531 2.640625 -1.59375 C 3.210938 -2.164062 3.832031 -3.101562 4.5 -4.40625 C 4.425781 -4.488281 4.328125 -4.578125 4.203125 -4.671875 C 4.078125 -4.773438 3.9375 -4.835938 3.78125 -4.859375 C 3.726562 -4.867188 3.679688 -4.875 3.640625 -4.875 C 3.359375 -4.875 3.046875 -4.726562 2.703125 -4.4375 C 2.304688 -4.070312 1.988281 -3.664062 1.75 -3.21875 C 1.507812 -2.769531 1.347656 -2.34375 1.265625 -1.9375 C 1.191406 -1.53125 1.191406 -1.207031 1.265625 -0.96875 C 1.273438 -0.945312 1.289062 -0.910156 1.3125 -0.859375 C 1.332031 -0.804688 1.359375 -0.78125 1.390625 -0.78125 Z M 1.390625 -0.78125 "/></g></g></g><g fill="#000000" fill-opacity="1"><g transform="translate(123.181746, 107.798686)"><g><path d="M 1.765625 -5.796875 C 1.878906 -5.773438 1.96875 -5.710938 2.03125 -5.609375 C 2.101562 -5.515625 2.128906 -5.410156 2.109375 -5.296875 L 1.203125 -0.1875 C 1.160156 0.0507812 1.023438 0.171875 0.796875 0.171875 C 0.773438 0.171875 0.75 0.171875 0.71875 0.171875 C 0.601562 0.148438 0.515625 0.09375 0.453125 0 C 0.390625 -0.101562 0.363281 -0.210938 0.375 -0.328125 L 1.28125 -5.453125 C 1.300781 -5.566406 1.359375 -5.65625 1.453125 -5.71875 C 1.546875 -5.78125 1.648438 -5.804688 1.765625 -5.796875 Z M 2.109375 -9.078125 C 2.253906 -9.078125 2.378906 -9.023438 2.484375 -8.921875 C 2.597656 -8.816406 2.65625 -8.691406 2.65625 -8.546875 C 2.65625 -8.398438 2.597656 -8.269531 2.484375 -8.15625 C 2.378906 -8.050781 2.253906 -8 2.109375 -8 C 1.960938 -8 1.835938 -8.050781 1.734375 -8.15625 C 1.628906 -8.269531 1.578125 -8.398438 1.578125 -8.546875 C 1.578125 -8.691406 1.628906 -8.816406 1.734375 -8.921875 C 1.835938 -9.023438 1.960938 -9.078125 2.109375 -9.078125 Z M 2.109375 -9.078125 "/></g></g></g><g fill="#000000" fill-opacity="1"><g transform="translate(125.662596, 107.798686)"><g><path d="M 5.296875 -5.453125 C 5.484375 -5.296875 5.609375 -5.023438 5.671875 -4.640625 C 5.734375 -4.265625 5.75 -3.820312 5.71875 -3.3125 C 5.6875 -2.8125 5.632812 -2.304688 5.5625 -1.796875 C 5.5 -1.285156 5.429688 -0.832031 5.359375 -0.4375 C 5.347656 -0.320312 5.289062 -0.226562 5.1875 -0.15625 C 5.09375 -0.09375 4.988281 -0.078125 4.875 -0.109375 C 4.757812 -0.128906 4.664062 -0.1875 4.59375 -0.28125 C 4.53125 -0.375 4.507812 -0.476562 4.53125 -0.59375 C 4.644531 -1.25 4.734375 -1.878906 4.796875 -2.484375 C 4.859375 -3.097656 4.882812 -3.613281 4.875 -4.03125 C 4.875 -4.445312 4.835938 -4.707031 4.765625 -4.8125 C 4.648438 -4.90625 4.523438 -4.929688 4.390625 -4.890625 C 4.128906 -4.828125 3.847656 -4.632812 3.546875 -4.3125 C 3.253906 -3.988281 2.960938 -3.59375 2.671875 -3.125 C 2.390625 -2.664062 2.117188 -2.1875 1.859375 -1.6875 C 1.609375 -1.1875 1.394531 -0.734375 1.21875 -0.328125 C 1.15625 -0.148438 1.023438 -0.0625 0.828125 -0.0625 C 0.796875 -0.0625 0.757812 -0.0664062 0.71875 -0.078125 C 0.613281 -0.117188 0.53125 -0.179688 0.46875 -0.265625 C 0.414062 -0.359375 0.398438 -0.457031 0.421875 -0.5625 L 1.265625 -5.453125 C 1.273438 -5.566406 1.328125 -5.65625 1.421875 -5.71875 C 1.515625 -5.789062 1.617188 -5.816406 1.734375 -5.796875 C 1.847656 -5.785156 1.9375 -5.726562 2 -5.625 C 2.070312 -5.53125 2.097656 -5.429688 2.078125 -5.328125 L 1.71875 -3.15625 C 1.945312 -3.539062 2.195312 -3.914062 2.46875 -4.28125 C 2.738281 -4.644531 3.015625 -4.953125 3.296875 -5.203125 C 3.585938 -5.460938 3.882812 -5.632812 4.1875 -5.71875 C 4.59375 -5.8125 4.960938 -5.722656 5.296875 -5.453125 Z M 5.296875 -5.453125 "/></g></g></g><g fill="#000000" fill-opacity="1"><g transform="translate(132.085627, 107.798686)"><g><path d="M 5.515625 -5.6875 C 5.609375 -5.65625 5.679688 -5.597656 5.734375 -5.515625 C 5.796875 -5.429688 5.820312 -5.335938 5.8125 -5.234375 L 5.0625 -0.28125 C 5.039062 -0.175781 4.984375 -0.0859375 4.890625 -0.015625 C 4.804688 0.046875 4.707031 0.0664062 4.59375 0.046875 C 4.46875 0.0351562 4.367188 -0.015625 4.296875 -0.109375 C 4.234375 -0.203125 4.210938 -0.304688 4.234375 -0.421875 L 4.609375 -2.859375 C 4.328125 -2.378906 4.007812 -1.914062 3.65625 -1.46875 C 3.3125 -1.019531 2.953125 -0.648438 2.578125 -0.359375 C 2.203125 -0.078125 1.832031 0.0625 1.46875 0.0625 C 1.394531 0.0625 1.332031 0.0546875 1.28125 0.046875 C 0.863281 -0.00390625 0.585938 -0.265625 0.453125 -0.734375 C 0.359375 -1.097656 0.351562 -1.535156 0.4375 -2.046875 C 0.53125 -2.566406 0.71875 -3.09375 1 -3.625 C 1.289062 -4.164062 1.671875 -4.644531 2.140625 -5.0625 C 2.734375 -5.582031 3.320312 -5.789062 3.90625 -5.6875 C 4.113281 -5.65625 4.296875 -5.59375 4.453125 -5.5 C 4.617188 -5.414062 4.765625 -5.316406 4.890625 -5.203125 C 4.929688 -5.285156 4.972656 -5.367188 5.015625 -5.453125 C 5.117188 -5.679688 5.285156 -5.757812 5.515625 -5.6875 Z M 1.390625 -0.78125 C 1.660156 -0.75 2.078125 -1.019531 2.640625 -1.59375 C 3.210938 -2.164062 3.832031 -3.101562 4.5 -4.40625 C 4.425781 -4.488281 4.328125 -4.578125 4.203125 -4.671875 C 4.078125 -4.773438 3.9375 -4.835938 3.78125 -4.859375 C 3.726562 -4.867188 3.679688 -4.875 3.640625 -4.875 C 3.359375 -4.875 3.046875 -4.726562 2.703125 -4.4375 C 2.304688 -4.070312 1.988281 -3.664062 1.75 -3.21875 C 1.507812 -2.769531 1.347656 -2.34375 1.265625 -1.9375 C 1.191406 -1.53125 1.191406 -1.207031 1.265625 -0.96875 C 1.273438 -0.945312 1.289062 -0.910156 1.3125 -0.859375 C 1.332031 -0.804688 1.359375 -0.78125 1.390625 -0.78125 Z M 1.390625 -0.78125 "/></g></g></g><g fill="#000000" fill-opacity="1"><g transform="translate(138.321741, 107.798686)"><g><path d="M 5.515625 -4.171875 C 5.554688 -3.828125 5.523438 -3.445312 5.421875 -3.03125 C 5.328125 -2.613281 5.175781 -2.21875 4.96875 -1.84375 C 4.757812 -1.476562 4.515625 -1.164062 4.234375 -0.90625 C 4.109375 -0.789062 3.921875 -0.644531 3.671875 -0.46875 C 3.421875 -0.300781 3.140625 -0.164062 2.828125 -0.0625 C 2.523438 0.03125 2.222656 0.03125 1.921875 -0.0625 C 1.679688 -0.132812 1.472656 -0.265625 1.296875 -0.453125 C 1.285156 -0.390625 1.265625 -0.316406 1.234375 -0.234375 C 1.179688 -0.0351562 1.046875 0.0625 0.828125 0.0625 C 0.796875 0.0625 0.769531 0.0625 0.75 0.0625 C 0.632812 0.03125 0.546875 -0.0234375 0.484375 -0.109375 C 0.421875 -0.203125 0.398438 -0.304688 0.421875 -0.421875 L 2.25 -11.328125 C 2.269531 -11.429688 2.328125 -11.519531 2.421875 -11.59375 C 2.515625 -11.664062 2.617188 -11.6875 2.734375 -11.65625 C 2.847656 -11.644531 2.9375 -11.59375 3 -11.5 C 3.070312 -11.40625 3.097656 -11.300781 3.078125 -11.1875 L 1.875 -4 C 2.070312 -4.320312 2.289062 -4.609375 2.53125 -4.859375 C 2.769531 -5.109375 3.023438 -5.296875 3.296875 -5.421875 C 3.773438 -5.640625 4.25 -5.628906 4.71875 -5.390625 C 5.175781 -5.148438 5.441406 -4.742188 5.515625 -4.171875 Z M 3.671875 -1.53125 C 3.878906 -1.71875 4.0625 -1.960938 4.21875 -2.265625 C 4.382812 -2.566406 4.507812 -2.878906 4.59375 -3.203125 C 4.675781 -3.523438 4.703125 -3.8125 4.671875 -4.0625 C 4.648438 -4.28125 4.597656 -4.425781 4.515625 -4.5 C 4.441406 -4.570312 4.390625 -4.617188 4.359375 -4.640625 C 4.117188 -4.753906 3.878906 -4.757812 3.640625 -4.65625 C 3.367188 -4.53125 3.109375 -4.300781 2.859375 -3.96875 C 2.609375 -3.632812 2.378906 -3.25 2.171875 -2.8125 C 1.972656 -2.375 1.800781 -1.953125 1.65625 -1.546875 C 1.78125 -1.160156 1.945312 -0.929688 2.15625 -0.859375 C 2.363281 -0.804688 2.609375 -0.851562 2.890625 -1 C 3.171875 -1.144531 3.429688 -1.320312 3.671875 -1.53125 Z M 3.671875 -1.53125 "/></g></g></g><g fill="#000000" fill-opacity="1"><g transform="translate(144.268995, 107.798686)"><g><path d="M 2.65625 -11.65625 C 2.769531 -11.632812 2.859375 -11.578125 2.921875 -11.484375 C 2.992188 -11.398438 3.015625 -11.300781 2.984375 -11.1875 L 1.28125 -0.375 C 1.238281 -0.132812 1.097656 -0.015625 0.859375 -0.015625 C 0.835938 -0.015625 0.816406 -0.0195312 0.796875 -0.03125 C 0.679688 -0.0390625 0.585938 -0.09375 0.515625 -0.1875 C 0.453125 -0.289062 0.425781 -0.398438 0.4375 -0.515625 L 2.15625 -11.3125 C 2.175781 -11.414062 2.234375 -11.503906 2.328125 -11.578125 C 2.429688 -11.660156 2.539062 -11.6875 2.65625 -11.65625 Z M 2.65625 -11.65625 "/></g></g></g><g fill="#000000" fill-opacity="1"><g transform="translate(146.732862, 107.798686)"><g><path d="M 4.375 -1.625 C 4.457031 -1.695312 4.554688 -1.726562 4.671875 -1.71875 C 4.785156 -1.71875 4.882812 -1.671875 4.96875 -1.578125 C 5.039062 -1.484375 5.070312 -1.378906 5.0625 -1.265625 C 5.050781 -1.160156 5 -1.066406 4.90625 -0.984375 C 4.65625 -0.765625 4.34375 -0.554688 3.96875 -0.359375 C 3.59375 -0.171875 3.171875 -0.078125 2.703125 -0.078125 C 2.566406 -0.078125 2.429688 -0.09375 2.296875 -0.125 C 1.660156 -0.207031 1.175781 -0.523438 0.84375 -1.078125 C 0.65625 -1.398438 0.550781 -1.769531 0.53125 -2.1875 C 0.519531 -2.226562 0.515625 -2.265625 0.515625 -2.296875 C 0.515625 -2.296875 0.519531 -2.300781 0.53125 -2.3125 C 0.519531 -2.71875 0.59375 -3.144531 0.75 -3.59375 C 0.914062 -4.03125 1.179688 -4.429688 1.546875 -4.796875 C 1.910156 -5.160156 2.335938 -5.4375 2.828125 -5.625 C 3.160156 -5.757812 3.484375 -5.832031 3.796875 -5.84375 C 4.109375 -5.863281 4.375 -5.820312 4.59375 -5.71875 C 4.988281 -5.519531 5.203125 -5.21875 5.234375 -4.8125 C 5.253906 -4.519531 5.171875 -4.210938 4.984375 -3.890625 C 4.796875 -3.578125 4.523438 -3.273438 4.171875 -2.984375 C 3.609375 -2.578125 3.082031 -2.296875 2.59375 -2.140625 C 2.113281 -1.984375 1.71875 -1.894531 1.40625 -1.875 C 1.457031 -1.738281 1.507812 -1.613281 1.5625 -1.5 C 1.757812 -1.175781 2.039062 -0.992188 2.40625 -0.953125 C 2.820312 -0.878906 3.195312 -0.925781 3.53125 -1.09375 C 3.875 -1.257812 4.15625 -1.4375 4.375 -1.625 Z M 1.546875 -3.296875 C 1.460938 -3.109375 1.410156 -2.910156 1.390625 -2.703125 C 1.640625 -2.734375 1.960938 -2.8125 2.359375 -2.9375 C 2.765625 -3.070312 3.195312 -3.316406 3.65625 -3.671875 C 3.925781 -3.878906 4.117188 -4.078125 4.234375 -4.265625 C 4.347656 -4.460938 4.40625 -4.625 4.40625 -4.75 C 4.394531 -4.769531 4.375 -4.800781 4.34375 -4.84375 C 4.320312 -4.882812 4.273438 -4.925781 4.203125 -4.96875 C 4.140625 -5 4.046875 -5.015625 3.921875 -5.015625 C 3.828125 -5.015625 3.707031 -5 3.5625 -4.96875 C 3.425781 -4.945312 3.28125 -4.90625 3.125 -4.84375 C 2.75 -4.695312 2.421875 -4.488281 2.140625 -4.21875 C 1.867188 -3.945312 1.671875 -3.640625 1.546875 -3.296875 Z M 1.546875 -3.296875 "/></g></g></g></g></g></g><g fill="#000000" fill-opacity="0.4"><g transform="translate(119.738695, 175.324562)"><g><path d="M -0.234375 -1.96875 C 0.140625 -1.769531 0.265625 -1.472656 0.140625 -1.078125 C 0.128906 -1.035156 0.117188 -1 0.109375 -0.96875 C 0.015625 -0.789062 -0.125 -0.671875 -0.3125 -0.609375 C -0.507812 -0.554688 -0.691406 -0.570312 -0.859375 -0.65625 L -17.859375 -8.796875 C -18.035156 -8.867188 -18.15625 -9 -18.21875 -9.1875 C -18.28125 -9.382812 -18.273438 -9.570312 -18.203125 -9.75 C -18.117188 -9.925781 -17.976562 -10.046875 -17.78125 -10.109375 C -17.59375 -10.171875 -17.40625 -10.160156 -17.21875 -10.078125 Z M -0.234375 -1.96875 "/></g></g></g><g fill="#000000" fill-opacity="0.4"><g transform="translate(121.698507, 168.294325)"><g><path d="M -2.5 -14.1875 C 1.8125 -9.976562 3.375 -6.671875 2.1875 -4.265625 C 2.125 -4.117188 2.050781 -3.984375 1.96875 -3.859375 C 1.5 -3.140625 0.765625 -2.707031 -0.234375 -2.5625 C -1.128906 -2.4375 -2.097656 -2.53125 -3.140625 -2.84375 C -4.191406 -3.164062 -5.21875 -3.613281 -6.21875 -4.1875 C -7.226562 -4.769531 -8.109375 -5.382812 -8.859375 -6.03125 C -12.515625 -9.28125 -14.410156 -12.117188 -14.546875 -14.546875 C -14.585938 -15.253906 -14.492188 -15.859375 -14.265625 -16.359375 C -14.035156 -16.859375 -13.789062 -17.253906 -13.53125 -17.546875 C -12.832031 -18.304688 -11.945312 -18.703125 -10.875 -18.734375 C -10.1875 -18.753906 -9.472656 -18.628906 -8.734375 -18.359375 C -8.003906 -18.097656 -7.289062 -17.757812 -6.59375 -17.34375 C -5.90625 -16.9375 -5.273438 -16.507812 -4.703125 -16.0625 C -4.128906 -15.613281 -3.660156 -15.222656 -3.296875 -14.890625 C -2.929688 -14.554688 -2.691406 -14.347656 -2.578125 -14.265625 Z M -12.4375 -16.5625 C -12.632812 -16.382812 -12.773438 -16.203125 -12.859375 -16.015625 C -13.054688 -15.609375 -13.144531 -15.144531 -13.125 -14.625 C -13.082031 -14.15625 -12.914062 -13.578125 -12.625 -12.890625 C -12.34375 -12.203125 -11.832031 -11.375 -11.09375 -10.40625 C -10.363281 -9.445312 -9.300781 -8.351562 -7.90625 -7.125 C -7.144531 -6.457031 -6.304688 -5.867188 -5.390625 -5.359375 C -4.472656 -4.859375 -3.578125 -4.484375 -2.703125 -4.234375 C -1.828125 -3.984375 -1.070312 -3.90625 -0.4375 -4 C 0.113281 -4.070312 0.507812 -4.289062 0.75 -4.65625 C 0.957031 -4.96875 1.078125 -5.359375 1.109375 -5.828125 C 1.140625 -6.296875 1.019531 -6.867188 0.75 -7.546875 C 0.488281 -8.234375 0.0234375 -9.039062 -0.640625 -9.96875 C -1.316406 -10.894531 -2.28125 -11.960938 -3.53125 -13.171875 L -3.609375 -13.234375 C -4.015625 -13.617188 -4.5 -14.039062 -5.0625 -14.5 C -5.632812 -14.96875 -6.253906 -15.421875 -6.921875 -15.859375 C -7.585938 -16.296875 -8.253906 -16.644531 -8.921875 -16.90625 C -9.597656 -17.175781 -10.238281 -17.3125 -10.84375 -17.3125 C -11.5 -17.28125 -12.03125 -17.03125 -12.4375 -16.5625 Z M -12.4375 -16.5625 "/></g></g></g><g fill="#000000" fill-opacity="0.4"><g transform="translate(128.74018, 154.423213)"><g><path d="M 0.625 -14.40625 C 3.9375 -9.351562 4.753906 -5.78125 3.078125 -3.6875 C 2.972656 -3.5625 2.863281 -3.445312 2.75 -3.34375 C 2.132812 -2.738281 1.320312 -2.472656 0.3125 -2.546875 C -0.582031 -2.617188 -1.503906 -2.921875 -2.453125 -3.453125 C -3.410156 -3.992188 -4.316406 -4.65625 -5.171875 -5.4375 C -6.023438 -6.21875 -6.742188 -7.007812 -7.328125 -7.8125 C -10.203125 -11.78125 -11.4375 -14.96875 -11.03125 -17.375 C -10.9375 -18.070312 -10.722656 -18.632812 -10.390625 -19.0625 C -10.054688 -19.5 -9.734375 -19.832031 -9.421875 -20.0625 C -8.566406 -20.644531 -7.613281 -20.84375 -6.5625 -20.65625 C -5.894531 -20.519531 -5.222656 -20.242188 -4.546875 -19.828125 C -3.878906 -19.410156 -3.253906 -18.925781 -2.671875 -18.375 C -2.097656 -17.820312 -1.582031 -17.265625 -1.125 -16.703125 C -0.664062 -16.140625 -0.289062 -15.65625 0 -15.25 C 0.289062 -14.84375 0.476562 -14.585938 0.5625 -14.484375 Z M -8.5625 -18.875 C -8.78125 -18.738281 -8.957031 -18.585938 -9.09375 -18.421875 C -9.375 -18.066406 -9.554688 -17.632812 -9.640625 -17.125 C -9.703125 -16.65625 -9.671875 -16.050781 -9.546875 -15.3125 C -9.421875 -14.570312 -9.097656 -13.65625 -8.578125 -12.5625 C -8.066406 -11.46875 -7.265625 -10.171875 -6.171875 -8.671875 C -5.578125 -7.847656 -4.882812 -7.09375 -4.09375 -6.40625 C -3.3125 -5.71875 -2.519531 -5.15625 -1.71875 -4.71875 C -0.925781 -4.289062 -0.210938 -4.050781 0.421875 -4 C 0.984375 -3.957031 1.421875 -4.082031 1.734375 -4.375 C 1.992188 -4.632812 2.191406 -4.992188 2.328125 -5.453125 C 2.472656 -5.910156 2.488281 -6.5 2.375 -7.21875 C 2.257812 -7.9375 1.972656 -8.816406 1.515625 -9.859375 C 1.066406 -10.910156 0.363281 -12.160156 -0.59375 -13.609375 L -0.65625 -13.703125 C -0.96875 -14.160156 -1.351562 -14.675781 -1.8125 -15.25 C -2.269531 -15.832031 -2.773438 -16.410156 -3.328125 -16.984375 C -3.890625 -17.554688 -4.46875 -18.046875 -5.0625 -18.453125 C -5.65625 -18.859375 -6.242188 -19.117188 -6.828125 -19.234375 C -7.484375 -19.359375 -8.0625 -19.238281 -8.5625 -18.875 Z M -8.5625 -18.875 "/></g></g></g><g fill="#000000" fill-opacity="0.4"><g transform="translate(138.716572, 142.428292)"><g><path d="M -4.625 -22.125 C -4.4375 -22.175781 -4.253906 -22.144531 -4.078125 -22.03125 C -3.910156 -21.925781 -3.800781 -21.785156 -3.75 -21.609375 L 0.671875 -2.1875 C 0.742188 -1.882812 0.660156 -1.632812 0.421875 -1.4375 C 0.335938 -1.375 0.234375 -1.328125 0.109375 -1.296875 C -0.078125 -1.242188 -0.253906 -1.273438 -0.421875 -1.390625 C -0.597656 -1.503906 -0.710938 -1.65625 -0.765625 -1.84375 L -5.15625 -21.25 C -5.195312 -21.445312 -5.160156 -21.632812 -5.046875 -21.8125 C -4.941406 -21.988281 -4.800781 -22.09375 -4.625 -22.125 Z M -5.734375 -13.59375 C -6.210938 -13.1875 -6.785156 -13.039062 -7.453125 -13.15625 C -8.117188 -13.28125 -8.679688 -13.617188 -9.140625 -14.171875 C -9.609375 -14.742188 -9.835938 -15.363281 -9.828125 -16.03125 C -9.816406 -16.707031 -9.570312 -17.25 -9.09375 -17.65625 C -8.625 -18.039062 -8.054688 -18.171875 -7.390625 -18.046875 C -6.734375 -17.929688 -6.171875 -17.585938 -5.703125 -17.015625 C -5.242188 -16.460938 -5.015625 -15.847656 -5.015625 -15.171875 C -5.023438 -14.503906 -5.265625 -13.976562 -5.734375 -13.59375 Z M -8.1875 -16.5625 C -8.332031 -16.4375 -8.398438 -16.234375 -8.390625 -15.953125 C -8.378906 -15.679688 -8.253906 -15.398438 -8.015625 -15.109375 C -7.785156 -14.835938 -7.535156 -14.664062 -7.265625 -14.59375 C -6.992188 -14.53125 -6.785156 -14.5625 -6.640625 -14.6875 C -6.503906 -14.800781 -6.441406 -14.992188 -6.453125 -15.265625 C -6.460938 -15.546875 -6.582031 -15.820312 -6.8125 -16.09375 C -7.050781 -16.382812 -7.304688 -16.5625 -7.578125 -16.625 C -7.847656 -16.695312 -8.050781 -16.675781 -8.1875 -16.5625 Z M 1.34375 -9.6875 C 1.820312 -10.09375 2.394531 -10.234375 3.0625 -10.109375 C 3.738281 -9.992188 4.304688 -9.65625 4.765625 -9.09375 C 5.234375 -8.519531 5.460938 -7.894531 5.453125 -7.21875 C 5.441406 -6.550781 5.195312 -6.015625 4.71875 -5.609375 C 4.25 -5.222656 3.679688 -5.085938 3.015625 -5.203125 C 2.359375 -5.328125 1.796875 -5.675781 1.328125 -6.25 C 0.867188 -6.8125 0.640625 -7.425781 0.640625 -8.09375 C 0.640625 -8.769531 0.875 -9.300781 1.34375 -9.6875 Z M 3.8125 -6.71875 C 3.96875 -6.851562 4.035156 -7.054688 4.015625 -7.328125 C 3.992188 -7.609375 3.867188 -7.890625 3.640625 -8.171875 C 3.410156 -8.441406 3.160156 -8.609375 2.890625 -8.671875 C 2.628906 -8.742188 2.421875 -8.710938 2.265625 -8.578125 C 2.128906 -8.472656 2.066406 -8.28125 2.078125 -8 C 2.085938 -7.71875 2.207031 -7.441406 2.4375 -7.171875 C 2.664062 -6.890625 2.914062 -6.71875 3.1875 -6.65625 C 3.46875 -6.59375 3.675781 -6.613281 3.8125 -6.71875 Z M 3.8125 -6.71875 "/></g></g></g><g fill="#000000" fill-opacity="0.4"><g transform="translate(149.617813, 133.856362)"><g/></g></g><g fill="#000000" fill-opacity="0.4"><g transform="translate(158.399639, 128.803427)"><g><path d="M -2.71875 -19.859375 C -2.1875 -20.585938 -1.566406 -21.109375 -0.859375 -21.421875 C -0.148438 -21.742188 0.570312 -21.925781 1.3125 -21.96875 C 2.0625 -22.007812 2.753906 -21.96875 3.390625 -21.84375 C 4.035156 -21.71875 4.578125 -21.554688 5.015625 -21.359375 C 5.203125 -21.285156 5.332031 -21.148438 5.40625 -20.953125 C 5.476562 -20.765625 5.472656 -20.578125 5.390625 -20.390625 C 5.304688 -20.210938 5.171875 -20.082031 4.984375 -20 C 4.796875 -19.925781 4.609375 -19.925781 4.421875 -20 C 4.390625 -20.03125 4.226562 -20.09375 3.9375 -20.1875 C 3.65625 -20.28125 3.285156 -20.367188 2.828125 -20.453125 C 2.378906 -20.535156 1.894531 -20.5625 1.375 -20.53125 C 0.851562 -20.507812 0.34375 -20.378906 -0.15625 -20.140625 C -0.664062 -19.910156 -1.125 -19.523438 -1.53125 -18.984375 C -2.101562 -18.210938 -2.285156 -17.40625 -2.078125 -16.5625 C -1.898438 -15.882812 -1.472656 -15.226562 -0.796875 -14.59375 C -0.117188 -13.96875 0.753906 -13.410156 1.828125 -12.921875 C 2.765625 -12.523438 3.660156 -12.085938 4.515625 -11.609375 C 5.378906 -11.140625 6.144531 -10.632812 6.8125 -10.09375 C 7.488281 -9.5625 7.984375 -8.96875 8.296875 -8.3125 C 8.617188 -7.664062 8.691406 -6.941406 8.515625 -6.140625 C 8.367188 -5.296875 8.039062 -4.546875 7.53125 -3.890625 C 7.019531 -3.242188 6.382812 -2.738281 5.625 -2.375 C 5.457031 -2.3125 5.289062 -2.25 5.125 -2.1875 C 3.226562 -1.5 1.109375 -1.765625 -1.234375 -2.984375 C -1.421875 -3.078125 -1.546875 -3.21875 -1.609375 -3.40625 C -1.671875 -3.601562 -1.648438 -3.796875 -1.546875 -3.984375 C -1.453125 -4.160156 -1.300781 -4.28125 -1.09375 -4.34375 C -0.894531 -4.40625 -0.707031 -4.382812 -0.53125 -4.28125 C 0.507812 -3.726562 1.503906 -3.40625 2.453125 -3.3125 C 3.410156 -3.21875 4.257812 -3.351562 5 -3.71875 C 6.144531 -4.25 6.84375 -5.15625 7.09375 -6.4375 C 7.289062 -7.382812 6.84375 -8.253906 5.75 -9.046875 C 4.664062 -9.847656 3.15625 -10.695312 1.21875 -11.59375 C -0.0703125 -12.175781 -1.117188 -12.863281 -1.921875 -13.65625 C -2.722656 -14.457031 -3.253906 -15.304688 -3.515625 -16.203125 C -3.828125 -17.484375 -3.5625 -18.703125 -2.71875 -19.859375 Z M -2.71875 -19.859375 "/></g></g></g><g fill="#000000" fill-opacity="0.4"><g transform="translate(172.037394, 124.136904)"><g><path d="M 7.75 -11.484375 C 7.925781 -11.472656 8.078125 -11.394531 8.203125 -11.25 C 8.328125 -11.113281 8.382812 -10.957031 8.375 -10.78125 L 8.3125 -2.1875 C 8.332031 -1.78125 8.140625 -1.539062 7.734375 -1.46875 C 7.703125 -1.46875 7.660156 -1.472656 7.609375 -1.484375 C 7.410156 -1.472656 7.238281 -1.539062 7.09375 -1.6875 C 6.957031 -1.832031 6.890625 -2 6.890625 -2.1875 L 6.921875 -6 C 6.429688 -4.71875 5.878906 -3.597656 5.265625 -2.640625 C 4.660156 -1.691406 4 -1.113281 3.28125 -0.90625 C 2.601562 -0.75 2 -0.941406 1.46875 -1.484375 C 1.101562 -1.835938 0.84375 -2.335938 0.6875 -2.984375 C 0.53125 -3.628906 0.4375 -4.304688 0.40625 -5.015625 C 0.375 -5.734375 0.367188 -6.363281 0.390625 -6.90625 C 0.421875 -7.695312 0.4375 -8.359375 0.4375 -8.890625 C 0.445312 -9.421875 0.453125 -9.6875 0.453125 -9.6875 C 0.460938 -9.894531 0.539062 -10.066406 0.6875 -10.203125 C 0.832031 -10.347656 1.003906 -10.414062 1.203125 -10.40625 C 1.398438 -10.40625 1.570312 -10.328125 1.71875 -10.171875 C 1.863281 -10.023438 1.929688 -9.859375 1.921875 -9.671875 C 1.921875 -9.671875 1.910156 -9.398438 1.890625 -8.859375 C 1.878906 -8.328125 1.863281 -7.648438 1.84375 -6.828125 C 1.8125 -5.660156 1.863281 -4.691406 2 -3.921875 C 2.132812 -3.148438 2.289062 -2.675781 2.46875 -2.5 C 2.59375 -2.375 2.6875 -2.304688 2.75 -2.296875 C 2.820312 -2.296875 2.875 -2.3125 2.90625 -2.34375 C 3.21875 -2.40625 3.585938 -2.734375 4.015625 -3.328125 C 4.441406 -3.929688 4.90625 -4.847656 5.40625 -6.078125 C 5.90625 -7.316406 6.421875 -8.945312 6.953125 -10.96875 C 7.003906 -11.132812 7.101562 -11.269531 7.25 -11.375 C 7.40625 -11.476562 7.570312 -11.515625 7.75 -11.484375 Z M 7.75 -11.484375 "/></g></g></g><g fill="#000000" fill-opacity="0.4"><g transform="translate(184.727915, 122.356902)"><g><path d="M 3.515625 -8.265625 C 3.316406 -8.171875 3.1875 -8.066406 3.125 -7.953125 C 3.070312 -7.847656 3.046875 -7.75 3.046875 -7.65625 C 2.972656 -7.34375 3.117188 -7.050781 3.484375 -6.78125 C 3.859375 -6.519531 4.460938 -6.195312 5.296875 -5.8125 C 6.015625 -5.488281 6.554688 -5.144531 6.921875 -4.78125 C 7.285156 -4.425781 7.53125 -4.078125 7.65625 -3.734375 C 7.789062 -3.398438 7.867188 -3.128906 7.890625 -2.921875 C 7.941406 -2.078125 7.609375 -1.425781 6.890625 -0.96875 C 6.210938 -0.570312 5.472656 -0.378906 4.671875 -0.390625 C 4.304688 -0.390625 3.957031 -0.429688 3.625 -0.515625 C 2.382812 -0.859375 1.453125 -1.65625 0.828125 -2.90625 C 0.722656 -3.09375 0.703125 -3.28125 0.765625 -3.46875 C 0.828125 -3.65625 0.945312 -3.789062 1.125 -3.875 C 1.300781 -3.96875 1.484375 -3.984375 1.671875 -3.921875 C 1.867188 -3.867188 2.007812 -3.753906 2.09375 -3.578125 C 2.550781 -2.691406 3.179688 -2.132812 3.984375 -1.90625 C 4.742188 -1.707031 5.453125 -1.8125 6.109375 -2.21875 C 6.359375 -2.363281 6.476562 -2.5625 6.46875 -2.8125 C 6.445312 -3.101562 6.28125 -3.394531 5.96875 -3.6875 C 5.664062 -3.988281 5.238281 -4.265625 4.6875 -4.515625 C 4.195312 -4.742188 3.691406 -5.003906 3.171875 -5.296875 C 2.660156 -5.585938 2.242188 -5.941406 1.921875 -6.359375 C 1.609375 -6.785156 1.503906 -7.300781 1.609375 -7.90625 C 1.742188 -8.644531 2.160156 -9.1875 2.859375 -9.53125 C 3.441406 -9.832031 4.117188 -9.960938 4.890625 -9.921875 C 5.660156 -9.890625 6.296875 -9.753906 6.796875 -9.515625 C 7.597656 -9.109375 8.191406 -8.660156 8.578125 -8.171875 C 8.691406 -8.023438 8.726562 -7.851562 8.6875 -7.65625 C 8.65625 -7.457031 8.5625 -7.300781 8.40625 -7.1875 C 8.25 -7.050781 8.070312 -7 7.875 -7.03125 C 7.6875 -7.0625 7.535156 -7.15625 7.421875 -7.3125 C 7.316406 -7.414062 7.175781 -7.546875 7 -7.703125 C 6.820312 -7.859375 6.546875 -8.023438 6.171875 -8.203125 C 5.835938 -8.359375 5.398438 -8.445312 4.859375 -8.46875 C 4.316406 -8.5 3.867188 -8.429688 3.515625 -8.265625 Z M 3.515625 -8.265625 "/></g></g></g><g fill="#000000" fill-opacity="0.4"><g transform="translate(196.165291, 122.681099)"><g><path d="M 10 -8.578125 C 10.195312 -8.546875 10.351562 -8.453125 10.46875 -8.296875 C 10.582031 -8.140625 10.625 -7.960938 10.59375 -7.765625 C 10.550781 -7.566406 10.453125 -7.410156 10.296875 -7.296875 C 10.140625 -7.179688 9.960938 -7.140625 9.765625 -7.171875 L 7.15625 -7.625 L 4.46875 -0.09375 C 4.320312 0.289062 4.050781 0.445312 3.65625 0.375 C 3.613281 0.375 3.570312 0.359375 3.53125 0.328125 C 3.34375 0.273438 3.203125 0.160156 3.109375 -0.015625 C 3.023438 -0.203125 3.019531 -0.382812 3.09375 -0.5625 L 5.703125 -7.875 L 3.25 -8.28125 C 3.0625 -8.320312 2.910156 -8.421875 2.796875 -8.578125 C 2.679688 -8.734375 2.644531 -8.910156 2.6875 -9.109375 C 2.71875 -9.304688 2.8125 -9.460938 2.96875 -9.578125 C 3.125 -9.691406 3.296875 -9.726562 3.484375 -9.6875 L 6.203125 -9.234375 L 9.5 -18.5 C 9.570312 -18.675781 9.703125 -18.804688 9.890625 -18.890625 C 10.078125 -18.984375 10.257812 -18.988281 10.4375 -18.90625 C 10.613281 -18.832031 10.75 -18.707031 10.84375 -18.53125 C 10.9375 -18.363281 10.945312 -18.179688 10.875 -17.984375 L 7.625 -8.984375 Z M 10 -8.578125 "/></g></g></g><g fill="#000000" fill-opacity="0.4"><g transform="translate(206.982603, 124.635755)"><g><path d="M 12.1875 -6.109375 C 12.332031 -5.992188 12.425781 -5.847656 12.46875 -5.671875 C 12.507812 -5.503906 12.492188 -5.34375 12.421875 -5.1875 L 8.40625 2.421875 C 8.289062 2.585938 8.140625 2.695312 7.953125 2.75 C 7.765625 2.800781 7.585938 2.785156 7.421875 2.703125 C 7.234375 2.617188 7.109375 2.476562 7.046875 2.28125 C 6.984375 2.082031 7.007812 1.894531 7.125 1.71875 L 9.09375 -2 C 8.363281 -1.40625 7.585938 -0.835938 6.765625 -0.296875 C 5.953125 0.234375 5.160156 0.625 4.390625 0.875 C 3.628906 1.132812 2.945312 1.15625 2.34375 0.9375 C 2.238281 0.90625 2.132812 0.863281 2.03125 0.8125 C 1.40625 0.476562 1.113281 -0.09375 1.15625 -0.90625 C 1.195312 -1.5625 1.4375 -2.28125 1.875 -3.0625 C 2.320312 -3.851562 2.929688 -4.597656 3.703125 -5.296875 C 4.484375 -6.003906 5.375 -6.578125 6.375 -7.015625 C 7.613281 -7.523438 8.6875 -7.53125 9.59375 -7.03125 C 9.90625 -6.84375 10.164062 -6.628906 10.375 -6.390625 C 10.59375 -6.160156 10.773438 -5.921875 10.921875 -5.671875 C 11.003906 -5.773438 11.113281 -5.882812 11.25 -6 C 11.539062 -6.3125 11.851562 -6.347656 12.1875 -6.109375 Z M 2.6875 -0.46875 C 3.113281 -0.25 3.945312 -0.445312 5.1875 -1.0625 C 6.4375 -1.675781 7.984375 -2.851562 9.828125 -4.59375 C 9.753906 -4.78125 9.640625 -4.984375 9.484375 -5.203125 C 9.335938 -5.429688 9.140625 -5.613281 8.890625 -5.75 C 8.828125 -5.789062 8.753906 -5.828125 8.671875 -5.859375 C 8.222656 -6.015625 7.632812 -5.945312 6.90625 -5.65625 C 6.0625 -5.289062 5.316406 -4.8125 4.671875 -4.21875 C 4.023438 -3.632812 3.519531 -3.035156 3.15625 -2.421875 C 2.800781 -1.804688 2.609375 -1.285156 2.578125 -0.859375 C 2.585938 -0.816406 2.597656 -0.742188 2.609375 -0.640625 C 2.617188 -0.546875 2.644531 -0.488281 2.6875 -0.46875 Z M 2.6875 -0.46875 "/></g></g></g><g fill="#000000" fill-opacity="0.4"><g transform="translate(219.18498, 129.325041)"><g><path d="M 7.265625 -7.46875 C 7.410156 -7.34375 7.5 -7.175781 7.53125 -6.96875 C 7.570312 -6.769531 7.53125 -6.597656 7.40625 -6.453125 L 2 0.65625 C 1.726562 0.988281 1.421875 1.066406 1.078125 0.890625 C 1.046875 0.867188 1.003906 0.847656 0.953125 0.828125 C 0.796875 0.691406 0.707031 0.523438 0.6875 0.328125 C 0.675781 0.140625 0.71875 -0.0351562 0.8125 -0.203125 L 6.234375 -7.34375 C 6.367188 -7.488281 6.53125 -7.570312 6.71875 -7.59375 C 6.914062 -7.613281 7.097656 -7.570312 7.265625 -7.46875 Z M 10.375 -12.21875 C 10.601562 -12.101562 10.757812 -11.921875 10.84375 -11.671875 C 10.925781 -11.429688 10.910156 -11.195312 10.796875 -10.96875 C 10.679688 -10.75 10.5 -10.597656 10.25 -10.515625 C 10 -10.441406 9.757812 -10.460938 9.53125 -10.578125 C 9.3125 -10.691406 9.164062 -10.867188 9.09375 -11.109375 C 9.019531 -11.359375 9.039062 -11.59375 9.15625 -11.8125 C 9.269531 -12.039062 9.445312 -12.191406 9.6875 -12.265625 C 9.925781 -12.347656 10.15625 -12.332031 10.375 -12.21875 Z M 10.375 -12.21875 "/></g></g></g><g fill="#000000" fill-opacity="0.4"><g transform="translate(225.110825, 132.299775)"><g><path d="M 12.875 -2.375 C 12.96875 -1.96875 12.867188 -1.46875 12.578125 -0.875 C 12.285156 -0.28125 11.867188 0.347656 11.328125 1.015625 C 10.796875 1.691406 10.222656 2.351562 9.609375 3 C 9.003906 3.65625 8.453125 4.222656 7.953125 4.703125 C 7.816406 4.847656 7.648438 4.921875 7.453125 4.921875 C 7.253906 4.929688 7.082031 4.863281 6.9375 4.71875 C 6.8125 4.570312 6.75 4.394531 6.75 4.1875 C 6.75 3.988281 6.820312 3.820312 6.96875 3.6875 C 7.78125 2.875 8.53125 2.070312 9.21875 1.28125 C 9.90625 0.5 10.453125 -0.1875 10.859375 -0.78125 C 11.273438 -1.382812 11.476562 -1.796875 11.46875 -2.015625 C 11.394531 -2.253906 11.25 -2.421875 11.03125 -2.515625 C 10.59375 -2.679688 10.003906 -2.679688 9.265625 -2.515625 C 8.523438 -2.347656 7.722656 -2.082031 6.859375 -1.71875 C 6.003906 -1.363281 5.148438 -0.960938 4.296875 -0.515625 C 3.441406 -0.0664062 2.691406 0.359375 2.046875 0.765625 C 1.765625 0.929688 1.492188 0.921875 1.234375 0.734375 C 1.179688 0.703125 1.128906 0.660156 1.078125 0.609375 C 0.984375 0.453125 0.9375 0.28125 0.9375 0.09375 C 0.945312 -0.09375 1.019531 -0.25 1.15625 -0.375 L 7.203125 -6.40625 C 7.316406 -6.550781 7.472656 -6.625 7.671875 -6.625 C 7.878906 -6.632812 8.054688 -6.566406 8.203125 -6.421875 C 8.347656 -6.285156 8.414062 -6.113281 8.40625 -5.90625 C 8.40625 -5.707031 8.335938 -5.539062 8.203125 -5.40625 L 5.546875 -2.734375 C 6.242188 -3.046875 6.960938 -3.316406 7.703125 -3.546875 C 8.453125 -3.785156 9.15625 -3.941406 9.8125 -4.015625 C 10.476562 -4.097656 11.054688 -4.046875 11.546875 -3.859375 C 12.222656 -3.585938 12.664062 -3.09375 12.875 -2.375 Z M 12.875 -2.375 "/></g></g></g><g fill="#000000" fill-opacity="0.4"><g transform="translate(235.754217, 140.100664)"><g><path d="M 13.625 -0.03125 C 13.695312 0.132812 13.710938 0.300781 13.671875 0.46875 C 13.640625 0.644531 13.554688 0.789062 13.421875 0.90625 L 6.4375 5.90625 C 6.257812 6.007812 6.078125 6.046875 5.890625 6.015625 C 5.703125 5.984375 5.550781 5.882812 5.4375 5.71875 C 5.300781 5.5625 5.25 5.378906 5.28125 5.171875 C 5.320312 4.960938 5.429688 4.804688 5.609375 4.703125 L 9.03125 2.265625 C 8.113281 2.484375 7.171875 2.644531 6.203125 2.75 C 5.234375 2.863281 4.347656 2.863281 3.546875 2.75 C 2.742188 2.632812 2.117188 2.34375 1.671875 1.875 C 1.597656 1.800781 1.53125 1.71875 1.46875 1.625 C 1.050781 1.050781 1.046875 0.410156 1.453125 -0.296875 C 1.773438 -0.867188 2.3125 -1.40625 3.0625 -1.90625 C 3.8125 -2.414062 4.6875 -2.8125 5.6875 -3.09375 C 6.695312 -3.382812 7.738281 -3.5 8.8125 -3.4375 C 10.164062 -3.332031 11.132812 -2.859375 11.71875 -2.015625 C 11.90625 -1.710938 12.039062 -1.40625 12.125 -1.09375 C 12.21875 -0.789062 12.273438 -0.488281 12.296875 -0.1875 C 12.421875 -0.25 12.570312 -0.304688 12.75 -0.359375 C 13.15625 -0.503906 13.445312 -0.394531 13.625 -0.03125 Z M 2.640625 0.78125 C 2.910156 1.15625 3.738281 1.347656 5.125 1.359375 C 6.507812 1.378906 8.414062 1.019531 10.84375 0.28125 C 10.863281 0.0703125 10.851562 -0.160156 10.8125 -0.421875 C 10.78125 -0.691406 10.679688 -0.941406 10.515625 -1.171875 C 10.472656 -1.234375 10.425781 -1.296875 10.375 -1.359375 C 10.039062 -1.703125 9.484375 -1.910156 8.703125 -1.984375 C 7.785156 -2.035156 6.910156 -1.941406 6.078125 -1.703125 C 5.242188 -1.460938 4.523438 -1.144531 3.921875 -0.75 C 3.328125 -0.363281 2.921875 0.0078125 2.703125 0.375 C 2.691406 0.414062 2.664062 0.484375 2.625 0.578125 C 2.59375 0.671875 2.597656 0.738281 2.640625 0.78125 Z M 2.640625 0.78125 "/></g></g></g><g fill="#000000" fill-opacity="0.4"><g transform="translate(244.586801, 149.50261)"><g><path d="M 11.234375 3.84375 C 10.785156 4.238281 10.222656 4.566406 9.546875 4.828125 C 8.867188 5.085938 8.160156 5.25 7.421875 5.3125 C 6.691406 5.375 6.003906 5.328125 5.359375 5.171875 C 5.066406 5.097656 4.679688 4.96875 4.203125 4.78125 C 3.722656 4.59375 3.265625 4.328125 2.828125 3.984375 C 2.390625 3.640625 2.09375 3.203125 1.9375 2.671875 C 1.8125 2.265625 1.796875 1.835938 1.890625 1.390625 C 1.773438 1.441406 1.660156 1.492188 1.546875 1.546875 C 1.191406 1.648438 0.910156 1.550781 0.703125 1.25 C 0.671875 1.195312 0.644531 1.15625 0.625 1.125 C 0.5625 0.9375 0.5625 0.753906 0.625 0.578125 C 0.695312 0.398438 0.828125 0.273438 1.015625 0.203125 L 18.296875 -7.6875 C 18.484375 -7.757812 18.671875 -7.757812 18.859375 -7.6875 C 19.046875 -7.613281 19.179688 -7.488281 19.265625 -7.3125 C 19.359375 -7.144531 19.363281 -6.960938 19.28125 -6.765625 C 19.207031 -6.578125 19.085938 -6.441406 18.921875 -6.359375 L 7.5 -1.171875 C 8.164062 -1.203125 8.789062 -1.164062 9.375 -1.0625 C 9.957031 -0.957031 10.46875 -0.773438 10.90625 -0.515625 C 11.664062 -0.0351562 12.109375 0.648438 12.234375 1.546875 C 12.328125 2.421875 11.992188 3.1875 11.234375 3.84375 Z M 5.703125 3.765625 C 6.179688 3.867188 6.710938 3.894531 7.296875 3.84375 C 7.878906 3.789062 8.441406 3.664062 8.984375 3.46875 C 9.535156 3.28125 9.972656 3.046875 10.296875 2.765625 C 10.578125 2.523438 10.726562 2.3125 10.75 2.125 C 10.78125 1.945312 10.800781 1.816406 10.8125 1.734375 C 10.738281 1.296875 10.515625 0.953125 10.140625 0.703125 C 9.691406 0.429688 9.113281 0.273438 8.40625 0.234375 C 7.695312 0.203125 6.929688 0.253906 6.109375 0.390625 C 5.285156 0.523438 4.507812 0.679688 3.78125 0.859375 C 3.363281 1.398438 3.207031 1.863281 3.3125 2.25 C 3.425781 2.59375 3.722656 2.894531 4.203125 3.15625 C 4.691406 3.425781 5.191406 3.628906 5.703125 3.765625 Z M 5.703125 3.765625 "/></g></g></g><g fill="#000000" fill-opacity="0.4"><g transform="translate(251.326062, 160.140213)"><g><path d="M 20 -4.78125 C 20.0625 -4.582031 20.046875 -4.394531 19.953125 -4.21875 C 19.859375 -4.050781 19.71875 -3.945312 19.53125 -3.90625 L 1.546875 1.6875 C 1.160156 1.8125 0.875 1.6875 0.6875 1.3125 C 0.675781 1.289062 0.671875 1.253906 0.671875 1.203125 C 0.597656 1.015625 0.609375 0.832031 0.703125 0.65625 C 0.796875 0.488281 0.9375 0.367188 1.125 0.296875 L 19.078125 -5.265625 C 19.273438 -5.328125 19.460938 -5.304688 19.640625 -5.203125 C 19.828125 -5.109375 19.945312 -4.96875 20 -4.78125 Z M 20 -4.78125 "/></g></g></g><g fill="#000000" fill-opacity="0.4"><g transform="translate(254.285077, 166.07889)"><g><path d="M 5.078125 6.21875 C 5.234375 6.332031 5.332031 6.484375 5.375 6.671875 C 5.425781 6.859375 5.40625 7.035156 5.3125 7.203125 C 5.207031 7.390625 5.0625 7.503906 4.875 7.546875 C 4.6875 7.597656 4.5 7.570312 4.3125 7.46875 C 3.820312 7.1875 3.316406 6.785156 2.796875 6.265625 C 2.273438 5.742188 1.882812 5.101562 1.625 4.34375 C 1.550781 4.132812 1.492188 3.914062 1.453125 3.6875 C 1.253906 2.59375 1.507812 1.628906 2.21875 0.796875 C 2.644531 0.304688 3.191406 -0.0703125 3.859375 -0.34375 C 3.910156 -0.382812 3.96875 -0.414062 4.03125 -0.4375 C 4.03125 -0.4375 4.039062 -0.425781 4.0625 -0.40625 C 4.71875 -0.65625 5.445312 -0.769531 6.25 -0.75 C 7.0625 -0.726562 7.863281 -0.519531 8.65625 -0.125 C 9.445312 0.269531 10.128906 0.816406 10.703125 1.515625 C 11.117188 1.992188 11.425781 2.476562 11.625 2.96875 C 11.820312 3.46875 11.890625 3.921875 11.828125 4.328125 C 11.742188 5.085938 11.367188 5.609375 10.703125 5.890625 C 10.242188 6.085938 9.703125 6.117188 9.078125 5.984375 C 8.460938 5.859375 7.820312 5.578125 7.15625 5.140625 C 6.1875 4.460938 5.441406 3.769531 4.921875 3.0625 C 4.398438 2.351562 4.035156 1.753906 3.828125 1.265625 C 3.617188 1.410156 3.441406 1.5625 3.296875 1.71875 C 2.878906 2.207031 2.738281 2.769531 2.875 3.40625 C 2.988281 4.113281 3.269531 4.695312 3.71875 5.15625 C 4.175781 5.625 4.628906 5.976562 5.078125 6.21875 Z M 6.21875 0.703125 C 5.863281 0.679688 5.507812 0.707031 5.15625 0.78125 C 5.351562 1.175781 5.671875 1.660156 6.109375 2.234375 C 6.546875 2.816406 7.175781 3.382812 8 3.9375 C 8.476562 4.269531 8.90625 4.476562 9.28125 4.5625 C 9.65625 4.644531 9.945312 4.648438 10.15625 4.578125 C 10.175781 4.546875 10.21875 4.492188 10.28125 4.421875 C 10.351562 4.359375 10.390625 4.253906 10.390625 4.109375 C 10.421875 3.992188 10.398438 3.832031 10.328125 3.625 C 10.273438 3.457031 10.1875 3.269531 10.0625 3.0625 C 9.9375 2.863281 9.785156 2.65625 9.609375 2.4375 C 9.160156 1.90625 8.640625 1.488281 8.046875 1.1875 C 7.453125 0.882812 6.84375 0.722656 6.21875 0.703125 Z M 6.21875 0.703125 "/></g></g></g><g fill="#ffffff" fill-opacity="1"><g transform="translate(118.446888, 174.03276)"><g><path d="M -0.234375 -1.96875 C 0.140625 -1.769531 0.265625 -1.472656 0.140625 -1.078125 C 0.128906 -1.035156 0.117188 -1 0.109375 -0.96875 C 0.015625 -0.789062 -0.125 -0.671875 -0.3125 -0.609375 C -0.507812 -0.554688 -0.691406 -0.570312 -0.859375 -0.65625 L -17.859375 -8.796875 C -18.035156 -8.867188 -18.15625 -9 -18.21875 -9.1875 C -18.28125 -9.382812 -18.273438 -9.570312 -18.203125 -9.75 C -18.117188 -9.925781 -17.976562 -10.046875 -17.78125 -10.109375 C -17.59375 -10.171875 -17.40625 -10.160156 -17.21875 -10.078125 Z M -0.234375 -1.96875 "/></g></g></g><g fill="#ffffff" fill-opacity="1"><g transform="translate(120.40669, 167.002509)"><g><path d="M -2.5 -14.1875 C 1.8125 -9.976562 3.375 -6.671875 2.1875 -4.265625 C 2.125 -4.117188 2.050781 -3.984375 1.96875 -3.859375 C 1.5 -3.140625 0.765625 -2.707031 -0.234375 -2.5625 C -1.128906 -2.4375 -2.097656 -2.53125 -3.140625 -2.84375 C -4.191406 -3.164062 -5.21875 -3.613281 -6.21875 -4.1875 C -7.226562 -4.769531 -8.109375 -5.382812 -8.859375 -6.03125 C -12.515625 -9.28125 -14.410156 -12.117188 -14.546875 -14.546875 C -14.585938 -15.253906 -14.492188 -15.859375 -14.265625 -16.359375 C -14.035156 -16.859375 -13.789062 -17.253906 -13.53125 -17.546875 C -12.832031 -18.304688 -11.945312 -18.703125 -10.875 -18.734375 C -10.1875 -18.753906 -9.472656 -18.628906 -8.734375 -18.359375 C -8.003906 -18.097656 -7.289062 -17.757812 -6.59375 -17.34375 C -5.90625 -16.9375 -5.273438 -16.507812 -4.703125 -16.0625 C -4.128906 -15.613281 -3.660156 -15.222656 -3.296875 -14.890625 C -2.929688 -14.554688 -2.691406 -14.347656 -2.578125 -14.265625 Z M -12.4375 -16.5625 C -12.632812 -16.382812 -12.773438 -16.203125 -12.859375 -16.015625 C -13.054688 -15.609375 -13.144531 -15.144531 -13.125 -14.625 C -13.082031 -14.15625 -12.914062 -13.578125 -12.625 -12.890625 C -12.34375 -12.203125 -11.832031 -11.375 -11.09375 -10.40625 C -10.363281 -9.445312 -9.300781 -8.351562 -7.90625 -7.125 C -7.144531 -6.457031 -6.304688 -5.867188 -5.390625 -5.359375 C -4.472656 -4.859375 -3.578125 -4.484375 -2.703125 -4.234375 C -1.828125 -3.984375 -1.070312 -3.90625 -0.4375 -4 C 0.113281 -4.070312 0.507812 -4.289062 0.75 -4.65625 C 0.957031 -4.96875 1.078125 -5.359375 1.109375 -5.828125 C 1.140625 -6.296875 1.019531 -6.867188 0.75 -7.546875 C 0.488281 -8.234375 0.0234375 -9.039062 -0.640625 -9.96875 C -1.316406 -10.894531 -2.28125 -11.960938 -3.53125 -13.171875 L -3.609375 -13.234375 C -4.015625 -13.617188 -4.5 -14.039062 -5.0625 -14.5 C -5.632812 -14.96875 -6.253906 -15.421875 -6.921875 -15.859375 C -7.585938 -16.296875 -8.253906 -16.644531 -8.921875 -16.90625 C -9.597656 -17.175781 -10.238281 -17.3125 -10.84375 -17.3125 C -11.5 -17.28125 -12.03125 -17.03125 -12.4375 -16.5625 Z M -12.4375 -16.5625 "/></g></g></g><g fill="#ffffff" fill-opacity="1"><g transform="translate(127.448371, 153.131396)"><g><path d="M 0.625 -14.40625 C 3.9375 -9.351562 4.753906 -5.78125 3.078125 -3.6875 C 2.972656 -3.5625 2.863281 -3.445312 2.75 -3.34375 C 2.132812 -2.738281 1.320312 -2.472656 0.3125 -2.546875 C -0.582031 -2.617188 -1.503906 -2.921875 -2.453125 -3.453125 C -3.410156 -3.992188 -4.316406 -4.65625 -5.171875 -5.4375 C -6.023438 -6.21875 -6.742188 -7.007812 -7.328125 -7.8125 C -10.203125 -11.78125 -11.4375 -14.96875 -11.03125 -17.375 C -10.9375 -18.070312 -10.722656 -18.632812 -10.390625 -19.0625 C -10.054688 -19.5 -9.734375 -19.832031 -9.421875 -20.0625 C -8.566406 -20.644531 -7.613281 -20.84375 -6.5625 -20.65625 C -5.894531 -20.519531 -5.222656 -20.242188 -4.546875 -19.828125 C -3.878906 -19.410156 -3.253906 -18.925781 -2.671875 -18.375 C -2.097656 -17.820312 -1.582031 -17.265625 -1.125 -16.703125 C -0.664062 -16.140625 -0.289062 -15.65625 0 -15.25 C 0.289062 -14.84375 0.476562 -14.585938 0.5625 -14.484375 Z M -8.5625 -18.875 C -8.78125 -18.738281 -8.957031 -18.585938 -9.09375 -18.421875 C -9.375 -18.066406 -9.554688 -17.632812 -9.640625 -17.125 C -9.703125 -16.65625 -9.671875 -16.050781 -9.546875 -15.3125 C -9.421875 -14.570312 -9.097656 -13.65625 -8.578125 -12.5625 C -8.066406 -11.46875 -7.265625 -10.171875 -6.171875 -8.671875 C -5.578125 -7.847656 -4.882812 -7.09375 -4.09375 -6.40625 C -3.3125 -5.71875 -2.519531 -5.15625 -1.71875 -4.71875 C -0.925781 -4.289062 -0.210938 -4.050781 0.421875 -4 C 0.984375 -3.957031 1.421875 -4.082031 1.734375 -4.375 C 1.992188 -4.632812 2.191406 -4.992188 2.328125 -5.453125 C 2.472656 -5.910156 2.488281 -6.5 2.375 -7.21875 C 2.257812 -7.9375 1.972656 -8.816406 1.515625 -9.859375 C 1.066406 -10.910156 0.363281 -12.160156 -0.59375 -13.609375 L -0.65625 -13.703125 C -0.96875 -14.160156 -1.351562 -14.675781 -1.8125 -15.25 C -2.269531 -15.832031 -2.773438 -16.410156 -3.328125 -16.984375 C -3.890625 -17.554688 -4.46875 -18.046875 -5.0625 -18.453125 C -5.65625 -18.859375 -6.242188 -19.117188 -6.828125 -19.234375 C -7.484375 -19.359375 -8.0625 -19.238281 -8.5625 -18.875 Z M -8.5625 -18.875 "/></g></g></g><g fill="#ffffff" fill-opacity="1"><g transform="translate(137.42477, 141.136478)"><g><path d="M -4.625 -22.125 C -4.4375 -22.175781 -4.253906 -22.144531 -4.078125 -22.03125 C -3.910156 -21.925781 -3.800781 -21.785156 -3.75 -21.609375 L 0.671875 -2.1875 C 0.742188 -1.882812 0.660156 -1.632812 0.421875 -1.4375 C 0.335938 -1.375 0.234375 -1.328125 0.109375 -1.296875 C -0.078125 -1.242188 -0.253906 -1.273438 -0.421875 -1.390625 C -0.597656 -1.503906 -0.710938 -1.65625 -0.765625 -1.84375 L -5.15625 -21.25 C -5.195312 -21.445312 -5.160156 -21.632812 -5.046875 -21.8125 C -4.941406 -21.988281 -4.800781 -22.09375 -4.625 -22.125 Z M -5.734375 -13.59375 C -6.210938 -13.1875 -6.785156 -13.039062 -7.453125 -13.15625 C -8.117188 -13.28125 -8.679688 -13.617188 -9.140625 -14.171875 C -9.609375 -14.742188 -9.835938 -15.363281 -9.828125 -16.03125 C -9.816406 -16.707031 -9.570312 -17.25 -9.09375 -17.65625 C -8.625 -18.039062 -8.054688 -18.171875 -7.390625 -18.046875 C -6.734375 -17.929688 -6.171875 -17.585938 -5.703125 -17.015625 C -5.242188 -16.460938 -5.015625 -15.847656 -5.015625 -15.171875 C -5.023438 -14.503906 -5.265625 -13.976562 -5.734375 -13.59375 Z M -8.1875 -16.5625 C -8.332031 -16.4375 -8.398438 -16.234375 -8.390625 -15.953125 C -8.378906 -15.679688 -8.253906 -15.398438 -8.015625 -15.109375 C -7.785156 -14.835938 -7.535156 -14.664062 -7.265625 -14.59375 C -6.992188 -14.53125 -6.785156 -14.5625 -6.640625 -14.6875 C -6.503906 -14.800781 -6.441406 -14.992188 -6.453125 -15.265625 C -6.460938 -15.546875 -6.582031 -15.820312 -6.8125 -16.09375 C -7.050781 -16.382812 -7.304688 -16.5625 -7.578125 -16.625 C -7.847656 -16.695312 -8.050781 -16.675781 -8.1875 -16.5625 Z M 1.34375 -9.6875 C 1.820312 -10.09375 2.394531 -10.234375 3.0625 -10.109375 C 3.738281 -9.992188 4.304688 -9.65625 4.765625 -9.09375 C 5.234375 -8.519531 5.460938 -7.894531 5.453125 -7.21875 C 5.441406 -6.550781 5.195312 -6.015625 4.71875 -5.609375 C 4.25 -5.222656 3.679688 -5.085938 3.015625 -5.203125 C 2.359375 -5.328125 1.796875 -5.675781 1.328125 -6.25 C 0.867188 -6.8125 0.640625 -7.425781 0.640625 -8.09375 C 0.640625 -8.769531 0.875 -9.300781 1.34375 -9.6875 Z M 3.8125 -6.71875 C 3.96875 -6.851562 4.035156 -7.054688 4.015625 -7.328125 C 3.992188 -7.609375 3.867188 -7.890625 3.640625 -8.171875 C 3.410156 -8.441406 3.160156 -8.609375 2.890625 -8.671875 C 2.628906 -8.742188 2.421875 -8.710938 2.265625 -8.578125 C 2.128906 -8.472656 2.066406 -8.28125 2.078125 -8 C 2.085938 -7.71875 2.207031 -7.441406 2.4375 -7.171875 C 2.664062 -6.890625 2.914062 -6.71875 3.1875 -6.65625 C 3.46875 -6.59375 3.675781 -6.613281 3.8125 -6.71875 Z M 3.8125 -6.71875 "/></g></g></g><g fill="#ffffff" fill-opacity="1"><g transform="translate(148.325996, 132.564553)"><g/></g></g><g fill="#ffffff" fill-opacity="1"><g transform="translate(157.107823, 127.511617)"><g><path d="M -2.71875 -19.859375 C -2.1875 -20.585938 -1.566406 -21.109375 -0.859375 -21.421875 C -0.148438 -21.742188 0.570312 -21.925781 1.3125 -21.96875 C 2.0625 -22.007812 2.753906 -21.96875 3.390625 -21.84375 C 4.035156 -21.71875 4.578125 -21.554688 5.015625 -21.359375 C 5.203125 -21.285156 5.332031 -21.148438 5.40625 -20.953125 C 5.476562 -20.765625 5.472656 -20.578125 5.390625 -20.390625 C 5.304688 -20.210938 5.171875 -20.082031 4.984375 -20 C 4.796875 -19.925781 4.609375 -19.925781 4.421875 -20 C 4.390625 -20.03125 4.226562 -20.09375 3.9375 -20.1875 C 3.65625 -20.28125 3.285156 -20.367188 2.828125 -20.453125 C 2.378906 -20.535156 1.894531 -20.5625 1.375 -20.53125 C 0.851562 -20.507812 0.34375 -20.378906 -0.15625 -20.140625 C -0.664062 -19.910156 -1.125 -19.523438 -1.53125 -18.984375 C -2.101562 -18.210938 -2.285156 -17.40625 -2.078125 -16.5625 C -1.898438 -15.882812 -1.472656 -15.226562 -0.796875 -14.59375 C -0.117188 -13.96875 0.753906 -13.410156 1.828125 -12.921875 C 2.765625 -12.523438 3.660156 -12.085938 4.515625 -11.609375 C 5.378906 -11.140625 6.144531 -10.632812 6.8125 -10.09375 C 7.488281 -9.5625 7.984375 -8.96875 8.296875 -8.3125 C 8.617188 -7.664062 8.691406 -6.941406 8.515625 -6.140625 C 8.367188 -5.296875 8.039062 -4.546875 7.53125 -3.890625 C 7.019531 -3.242188 6.382812 -2.738281 5.625 -2.375 C 5.457031 -2.3125 5.289062 -2.25 5.125 -2.1875 C 3.226562 -1.5 1.109375 -1.765625 -1.234375 -2.984375 C -1.421875 -3.078125 -1.546875 -3.21875 -1.609375 -3.40625 C -1.671875 -3.601562 -1.648438 -3.796875 -1.546875 -3.984375 C -1.453125 -4.160156 -1.300781 -4.28125 -1.09375 -4.34375 C -0.894531 -4.40625 -0.707031 -4.382812 -0.53125 -4.28125 C 0.507812 -3.726562 1.503906 -3.40625 2.453125 -3.3125 C 3.410156 -3.21875 4.257812 -3.351562 5 -3.71875 C 6.144531 -4.25 6.84375 -5.15625 7.09375 -6.4375 C 7.289062 -7.382812 6.84375 -8.253906 5.75 -9.046875 C 4.664062 -9.847656 3.15625 -10.695312 1.21875 -11.59375 C -0.0703125 -12.175781 -1.117188 -12.863281 -1.921875 -13.65625 C -2.722656 -14.457031 -3.253906 -15.304688 -3.515625 -16.203125 C -3.828125 -17.484375 -3.5625 -18.703125 -2.71875 -19.859375 Z M -2.71875 -19.859375 "/></g></g></g><g fill="#ffffff" fill-opacity="1"><g transform="translate(170.745592, 122.845088)"><g><path d="M 7.75 -11.484375 C 7.925781 -11.472656 8.078125 -11.394531 8.203125 -11.25 C 8.328125 -11.113281 8.382812 -10.957031 8.375 -10.78125 L 8.3125 -2.1875 C 8.332031 -1.78125 8.140625 -1.539062 7.734375 -1.46875 C 7.703125 -1.46875 7.660156 -1.472656 7.609375 -1.484375 C 7.410156 -1.472656 7.238281 -1.539062 7.09375 -1.6875 C 6.957031 -1.832031 6.890625 -2 6.890625 -2.1875 L 6.921875 -6 C 6.429688 -4.71875 5.878906 -3.597656 5.265625 -2.640625 C 4.660156 -1.691406 4 -1.113281 3.28125 -0.90625 C 2.601562 -0.75 2 -0.941406 1.46875 -1.484375 C 1.101562 -1.835938 0.84375 -2.335938 0.6875 -2.984375 C 0.53125 -3.628906 0.4375 -4.304688 0.40625 -5.015625 C 0.375 -5.734375 0.367188 -6.363281 0.390625 -6.90625 C 0.421875 -7.695312 0.4375 -8.359375 0.4375 -8.890625 C 0.445312 -9.421875 0.453125 -9.6875 0.453125 -9.6875 C 0.460938 -9.894531 0.539062 -10.066406 0.6875 -10.203125 C 0.832031 -10.347656 1.003906 -10.414062 1.203125 -10.40625 C 1.398438 -10.40625 1.570312 -10.328125 1.71875 -10.171875 C 1.863281 -10.023438 1.929688 -9.859375 1.921875 -9.671875 C 1.921875 -9.671875 1.910156 -9.398438 1.890625 -8.859375 C 1.878906 -8.328125 1.863281 -7.648438 1.84375 -6.828125 C 1.8125 -5.660156 1.863281 -4.691406 2 -3.921875 C 2.132812 -3.148438 2.289062 -2.675781 2.46875 -2.5 C 2.59375 -2.375 2.6875 -2.304688 2.75 -2.296875 C 2.820312 -2.296875 2.875 -2.3125 2.90625 -2.34375 C 3.21875 -2.40625 3.585938 -2.734375 4.015625 -3.328125 C 4.441406 -3.929688 4.90625 -4.847656 5.40625 -6.078125 C 5.90625 -7.316406 6.421875 -8.945312 6.953125 -10.96875 C 7.003906 -11.132812 7.101562 -11.269531 7.25 -11.375 C 7.40625 -11.476562 7.570312 -11.515625 7.75 -11.484375 Z M 7.75 -11.484375 "/></g></g></g><g fill="#ffffff" fill-opacity="1"><g transform="translate(183.436098, 121.065093)"><g><path d="M 3.515625 -8.265625 C 3.316406 -8.171875 3.1875 -8.066406 3.125 -7.953125 C 3.070312 -7.847656 3.046875 -7.75 3.046875 -7.65625 C 2.972656 -7.34375 3.117188 -7.050781 3.484375 -6.78125 C 3.859375 -6.519531 4.460938 -6.195312 5.296875 -5.8125 C 6.015625 -5.488281 6.554688 -5.144531 6.921875 -4.78125 C 7.285156 -4.425781 7.53125 -4.078125 7.65625 -3.734375 C 7.789062 -3.398438 7.867188 -3.128906 7.890625 -2.921875 C 7.941406 -2.078125 7.609375 -1.425781 6.890625 -0.96875 C 6.210938 -0.570312 5.472656 -0.378906 4.671875 -0.390625 C 4.304688 -0.390625 3.957031 -0.429688 3.625 -0.515625 C 2.382812 -0.859375 1.453125 -1.65625 0.828125 -2.90625 C 0.722656 -3.09375 0.703125 -3.28125 0.765625 -3.46875 C 0.828125 -3.65625 0.945312 -3.789062 1.125 -3.875 C 1.300781 -3.96875 1.484375 -3.984375 1.671875 -3.921875 C 1.867188 -3.867188 2.007812 -3.753906 2.09375 -3.578125 C 2.550781 -2.691406 3.179688 -2.132812 3.984375 -1.90625 C 4.742188 -1.707031 5.453125 -1.8125 6.109375 -2.21875 C 6.359375 -2.363281 6.476562 -2.5625 6.46875 -2.8125 C 6.445312 -3.101562 6.28125 -3.394531 5.96875 -3.6875 C 5.664062 -3.988281 5.238281 -4.265625 4.6875 -4.515625 C 4.195312 -4.742188 3.691406 -5.003906 3.171875 -5.296875 C 2.660156 -5.585938 2.242188 -5.941406 1.921875 -6.359375 C 1.609375 -6.785156 1.503906 -7.300781 1.609375 -7.90625 C 1.742188 -8.644531 2.160156 -9.1875 2.859375 -9.53125 C 3.441406 -9.832031 4.117188 -9.960938 4.890625 -9.921875 C 5.660156 -9.890625 6.296875 -9.753906 6.796875 -9.515625 C 7.597656 -9.109375 8.191406 -8.660156 8.578125 -8.171875 C 8.691406 -8.023438 8.726562 -7.851562 8.6875 -7.65625 C 8.65625 -7.457031 8.5625 -7.300781 8.40625 -7.1875 C 8.25 -7.050781 8.070312 -7 7.875 -7.03125 C 7.6875 -7.0625 7.535156 -7.15625 7.421875 -7.3125 C 7.316406 -7.414062 7.175781 -7.546875 7 -7.703125 C 6.820312 -7.859375 6.546875 -8.023438 6.171875 -8.203125 C 5.835938 -8.359375 5.398438 -8.445312 4.859375 -8.46875 C 4.316406 -8.5 3.867188 -8.429688 3.515625 -8.265625 Z M 3.515625 -8.265625 "/></g></g></g><g fill="#ffffff" fill-opacity="1"><g transform="translate(194.873489, 121.38929)"><g><path d="M 10 -8.578125 C 10.195312 -8.546875 10.351562 -8.453125 10.46875 -8.296875 C 10.582031 -8.140625 10.625 -7.960938 10.59375 -7.765625 C 10.550781 -7.566406 10.453125 -7.410156 10.296875 -7.296875 C 10.140625 -7.179688 9.960938 -7.140625 9.765625 -7.171875 L 7.15625 -7.625 L 4.46875 -0.09375 C 4.320312 0.289062 4.050781 0.445312 3.65625 0.375 C 3.613281 0.375 3.570312 0.359375 3.53125 0.328125 C 3.34375 0.273438 3.203125 0.160156 3.109375 -0.015625 C 3.023438 -0.203125 3.019531 -0.382812 3.09375 -0.5625 L 5.703125 -7.875 L 3.25 -8.28125 C 3.0625 -8.320312 2.910156 -8.421875 2.796875 -8.578125 C 2.679688 -8.734375 2.644531 -8.910156 2.6875 -9.109375 C 2.71875 -9.304688 2.8125 -9.460938 2.96875 -9.578125 C 3.125 -9.691406 3.296875 -9.726562 3.484375 -9.6875 L 6.203125 -9.234375 L 9.5 -18.5 C 9.570312 -18.675781 9.703125 -18.804688 9.890625 -18.890625 C 10.078125 -18.984375 10.257812 -18.988281 10.4375 -18.90625 C 10.613281 -18.832031 10.75 -18.707031 10.84375 -18.53125 C 10.9375 -18.363281 10.945312 -18.179688 10.875 -17.984375 L 7.625 -8.984375 Z M 10 -8.578125 "/></g></g></g><g fill="#ffffff" fill-opacity="1"><g transform="translate(205.690801, 123.343948)"><g><path d="M 12.1875 -6.109375 C 12.332031 -5.992188 12.425781 -5.847656 12.46875 -5.671875 C 12.507812 -5.503906 12.492188 -5.34375 12.421875 -5.1875 L 8.40625 2.421875 C 8.289062 2.585938 8.140625 2.695312 7.953125 2.75 C 7.765625 2.800781 7.585938 2.785156 7.421875 2.703125 C 7.234375 2.617188 7.109375 2.476562 7.046875 2.28125 C 6.984375 2.082031 7.007812 1.894531 7.125 1.71875 L 9.09375 -2 C 8.363281 -1.40625 7.585938 -0.835938 6.765625 -0.296875 C 5.953125 0.234375 5.160156 0.625 4.390625 0.875 C 3.628906 1.132812 2.945312 1.15625 2.34375 0.9375 C 2.238281 0.90625 2.132812 0.863281 2.03125 0.8125 C 1.40625 0.476562 1.113281 -0.09375 1.15625 -0.90625 C 1.195312 -1.5625 1.4375 -2.28125 1.875 -3.0625 C 2.320312 -3.851562 2.929688 -4.597656 3.703125 -5.296875 C 4.484375 -6.003906 5.375 -6.578125 6.375 -7.015625 C 7.613281 -7.523438 8.6875 -7.53125 9.59375 -7.03125 C 9.90625 -6.84375 10.164062 -6.628906 10.375 -6.390625 C 10.59375 -6.160156 10.773438 -5.921875 10.921875 -5.671875 C 11.003906 -5.773438 11.113281 -5.882812 11.25 -6 C 11.539062 -6.3125 11.851562 -6.347656 12.1875 -6.109375 Z M 2.6875 -0.46875 C 3.113281 -0.25 3.945312 -0.445312 5.1875 -1.0625 C 6.4375 -1.675781 7.984375 -2.851562 9.828125 -4.59375 C 9.753906 -4.78125 9.640625 -4.984375 9.484375 -5.203125 C 9.335938 -5.429688 9.140625 -5.613281 8.890625 -5.75 C 8.828125 -5.789062 8.753906 -5.828125 8.671875 -5.859375 C 8.222656 -6.015625 7.632812 -5.945312 6.90625 -5.65625 C 6.0625 -5.289062 5.316406 -4.8125 4.671875 -4.21875 C 4.023438 -3.632812 3.519531 -3.035156 3.15625 -2.421875 C 2.800781 -1.804688 2.609375 -1.285156 2.578125 -0.859375 C 2.585938 -0.816406 2.597656 -0.742188 2.609375 -0.640625 C 2.617188 -0.546875 2.644531 -0.488281 2.6875 -0.46875 Z M 2.6875 -0.46875 "/></g></g></g><g fill="#ffffff" fill-opacity="1"><g transform="translate(217.893164, 128.033232)"><g><path d="M 7.265625 -7.46875 C 7.410156 -7.34375 7.5 -7.175781 7.53125 -6.96875 C 7.570312 -6.769531 7.53125 -6.597656 7.40625 -6.453125 L 2 0.65625 C 1.726562 0.988281 1.421875 1.066406 1.078125 0.890625 C 1.046875 0.867188 1.003906 0.847656 0.953125 0.828125 C 0.796875 0.691406 0.707031 0.523438 0.6875 0.328125 C 0.675781 0.140625 0.71875 -0.0351562 0.8125 -0.203125 L 6.234375 -7.34375 C 6.367188 -7.488281 6.53125 -7.570312 6.71875 -7.59375 C 6.914062 -7.613281 7.097656 -7.570312 7.265625 -7.46875 Z M 10.375 -12.21875 C 10.601562 -12.101562 10.757812 -11.921875 10.84375 -11.671875 C 10.925781 -11.429688 10.910156 -11.195312 10.796875 -10.96875 C 10.679688 -10.75 10.5 -10.597656 10.25 -10.515625 C 10 -10.441406 9.757812 -10.460938 9.53125 -10.578125 C 9.3125 -10.691406 9.164062 -10.867188 9.09375 -11.109375 C 9.019531 -11.359375 9.039062 -11.59375 9.15625 -11.8125 C 9.269531 -12.039062 9.445312 -12.191406 9.6875 -12.265625 C 9.925781 -12.347656 10.15625 -12.332031 10.375 -12.21875 Z M 10.375 -12.21875 "/></g></g></g><g fill="#ffffff" fill-opacity="1"><g transform="translate(223.819008, 131.007965)"><g><path d="M 12.875 -2.375 C 12.96875 -1.96875 12.867188 -1.46875 12.578125 -0.875 C 12.285156 -0.28125 11.867188 0.347656 11.328125 1.015625 C 10.796875 1.691406 10.222656 2.351562 9.609375 3 C 9.003906 3.65625 8.453125 4.222656 7.953125 4.703125 C 7.816406 4.847656 7.648438 4.921875 7.453125 4.921875 C 7.253906 4.929688 7.082031 4.863281 6.9375 4.71875 C 6.8125 4.570312 6.75 4.394531 6.75 4.1875 C 6.75 3.988281 6.820312 3.820312 6.96875 3.6875 C 7.78125 2.875 8.53125 2.070312 9.21875 1.28125 C 9.90625 0.5 10.453125 -0.1875 10.859375 -0.78125 C 11.273438 -1.382812 11.476562 -1.796875 11.46875 -2.015625 C 11.394531 -2.253906 11.25 -2.421875 11.03125 -2.515625 C 10.59375 -2.679688 10.003906 -2.679688 9.265625 -2.515625 C 8.523438 -2.347656 7.722656 -2.082031 6.859375 -1.71875 C 6.003906 -1.363281 5.148438 -0.960938 4.296875 -0.515625 C 3.441406 -0.0664062 2.691406 0.359375 2.046875 0.765625 C 1.765625 0.929688 1.492188 0.921875 1.234375 0.734375 C 1.179688 0.703125 1.128906 0.660156 1.078125 0.609375 C 0.984375 0.453125 0.9375 0.28125 0.9375 0.09375 C 0.945312 -0.09375 1.019531 -0.25 1.15625 -0.375 L 7.203125 -6.40625 C 7.316406 -6.550781 7.472656 -6.625 7.671875 -6.625 C 7.878906 -6.632812 8.054688 -6.566406 8.203125 -6.421875 C 8.347656 -6.285156 8.414062 -6.113281 8.40625 -5.90625 C 8.40625 -5.707031 8.335938 -5.539062 8.203125 -5.40625 L 5.546875 -2.734375 C 6.242188 -3.046875 6.960938 -3.316406 7.703125 -3.546875 C 8.453125 -3.785156 9.15625 -3.941406 9.8125 -4.015625 C 10.476562 -4.097656 11.054688 -4.046875 11.546875 -3.859375 C 12.222656 -3.585938 12.664062 -3.09375 12.875 -2.375 Z M 12.875 -2.375 "/></g></g></g><g fill="#ffffff" fill-opacity="1"><g transform="translate(234.4624, 138.808847)"><g><path d="M 13.625 -0.03125 C 13.695312 0.132812 13.710938 0.300781 13.671875 0.46875 C 13.640625 0.644531 13.554688 0.789062 13.421875 0.90625 L 6.4375 5.90625 C 6.257812 6.007812 6.078125 6.046875 5.890625 6.015625 C 5.703125 5.984375 5.550781 5.882812 5.4375 5.71875 C 5.300781 5.5625 5.25 5.378906 5.28125 5.171875 C 5.320312 4.960938 5.429688 4.804688 5.609375 4.703125 L 9.03125 2.265625 C 8.113281 2.484375 7.171875 2.644531 6.203125 2.75 C 5.234375 2.863281 4.347656 2.863281 3.546875 2.75 C 2.742188 2.632812 2.117188 2.34375 1.671875 1.875 C 1.597656 1.800781 1.53125 1.71875 1.46875 1.625 C 1.050781 1.050781 1.046875 0.410156 1.453125 -0.296875 C 1.773438 -0.867188 2.3125 -1.40625 3.0625 -1.90625 C 3.8125 -2.414062 4.6875 -2.8125 5.6875 -3.09375 C 6.695312 -3.382812 7.738281 -3.5 8.8125 -3.4375 C 10.164062 -3.332031 11.132812 -2.859375 11.71875 -2.015625 C 11.90625 -1.710938 12.039062 -1.40625 12.125 -1.09375 C 12.21875 -0.789062 12.273438 -0.488281 12.296875 -0.1875 C 12.421875 -0.25 12.570312 -0.304688 12.75 -0.359375 C 13.15625 -0.503906 13.445312 -0.394531 13.625 -0.03125 Z M 2.640625 0.78125 C 2.910156 1.15625 3.738281 1.347656 5.125 1.359375 C 6.507812 1.378906 8.414062 1.019531 10.84375 0.28125 C 10.863281 0.0703125 10.851562 -0.160156 10.8125 -0.421875 C 10.78125 -0.691406 10.679688 -0.941406 10.515625 -1.171875 C 10.472656 -1.234375 10.425781 -1.296875 10.375 -1.359375 C 10.039062 -1.703125 9.484375 -1.910156 8.703125 -1.984375 C 7.785156 -2.035156 6.910156 -1.941406 6.078125 -1.703125 C 5.242188 -1.460938 4.523438 -1.144531 3.921875 -0.75 C 3.328125 -0.363281 2.921875 0.0078125 2.703125 0.375 C 2.691406 0.414062 2.664062 0.484375 2.625 0.578125 C 2.59375 0.671875 2.597656 0.738281 2.640625 0.78125 Z M 2.640625 0.78125 "/></g></g></g><g fill="#ffffff" fill-opacity="1"><g transform="translate(243.295013, 148.210808)"><g><path d="M 11.234375 3.84375 C 10.785156 4.238281 10.222656 4.566406 9.546875 4.828125 C 8.867188 5.085938 8.160156 5.25 7.421875 5.3125 C 6.691406 5.375 6.003906 5.328125 5.359375 5.171875 C 5.066406 5.097656 4.679688 4.96875 4.203125 4.78125 C 3.722656 4.59375 3.265625 4.328125 2.828125 3.984375 C 2.390625 3.640625 2.09375 3.203125 1.9375 2.671875 C 1.8125 2.265625 1.796875 1.835938 1.890625 1.390625 C 1.773438 1.441406 1.660156 1.492188 1.546875 1.546875 C 1.191406 1.648438 0.910156 1.550781 0.703125 1.25 C 0.671875 1.195312 0.644531 1.15625 0.625 1.125 C 0.5625 0.9375 0.5625 0.753906 0.625 0.578125 C 0.695312 0.398438 0.828125 0.273438 1.015625 0.203125 L 18.296875 -7.6875 C 18.484375 -7.757812 18.671875 -7.757812 18.859375 -7.6875 C 19.046875 -7.613281 19.179688 -7.488281 19.265625 -7.3125 C 19.359375 -7.144531 19.363281 -6.960938 19.28125 -6.765625 C 19.207031 -6.578125 19.085938 -6.441406 18.921875 -6.359375 L 7.5 -1.171875 C 8.164062 -1.203125 8.789062 -1.164062 9.375 -1.0625 C 9.957031 -0.957031 10.46875 -0.773438 10.90625 -0.515625 C 11.664062 -0.0351562 12.109375 0.648438 12.234375 1.546875 C 12.328125 2.421875 11.992188 3.1875 11.234375 3.84375 Z M 5.703125 3.765625 C 6.179688 3.867188 6.710938 3.894531 7.296875 3.84375 C 7.878906 3.789062 8.441406 3.664062 8.984375 3.46875 C 9.535156 3.28125 9.972656 3.046875 10.296875 2.765625 C 10.578125 2.523438 10.726562 2.3125 10.75 2.125 C 10.78125 1.945312 10.800781 1.816406 10.8125 1.734375 C 10.738281 1.296875 10.515625 0.953125 10.140625 0.703125 C 9.691406 0.429688 9.113281 0.273438 8.40625 0.234375 C 7.695312 0.203125 6.929688 0.253906 6.109375 0.390625 C 5.285156 0.523438 4.507812 0.679688 3.78125 0.859375 C 3.363281 1.398438 3.207031 1.863281 3.3125 2.25 C 3.425781 2.59375 3.722656 2.894531 4.203125 3.15625 C 4.691406 3.425781 5.191406 3.628906 5.703125 3.765625 Z M 5.703125 3.765625 "/></g></g></g><g fill="#ffffff" fill-opacity="1"><g transform="translate(250.034246, 158.848397)"><g><path d="M 20 -4.78125 C 20.0625 -4.582031 20.046875 -4.394531 19.953125 -4.21875 C 19.859375 -4.050781 19.71875 -3.945312 19.53125 -3.90625 L 1.546875 1.6875 C 1.160156 1.8125 0.875 1.6875 0.6875 1.3125 C 0.675781 1.289062 0.671875 1.253906 0.671875 1.203125 C 0.597656 1.015625 0.609375 0.832031 0.703125 0.65625 C 0.796875 0.488281 0.9375 0.367188 1.125 0.296875 L 19.078125 -5.265625 C 19.273438 -5.328125 19.460938 -5.304688 19.640625 -5.203125 C 19.828125 -5.109375 19.945312 -4.96875 20 -4.78125 Z M 20 -4.78125 "/></g></g></g><g fill="#ffffff" fill-opacity="1"><g transform="translate(252.993261, 164.787088)"><g><path d="M 5.078125 6.21875 C 5.234375 6.332031 5.332031 6.484375 5.375 6.671875 C 5.425781 6.859375 5.40625 7.035156 5.3125 7.203125 C 5.207031 7.390625 5.0625 7.503906 4.875 7.546875 C 4.6875 7.597656 4.5 7.570312 4.3125 7.46875 C 3.820312 7.1875 3.316406 6.785156 2.796875 6.265625 C 2.273438 5.742188 1.882812 5.101562 1.625 4.34375 C 1.550781 4.132812 1.492188 3.914062 1.453125 3.6875 C 1.253906 2.59375 1.507812 1.628906 2.21875 0.796875 C 2.644531 0.304688 3.191406 -0.0703125 3.859375 -0.34375 C 3.910156 -0.382812 3.96875 -0.414062 4.03125 -0.4375 C 4.03125 -0.4375 4.039062 -0.425781 4.0625 -0.40625 C 4.71875 -0.65625 5.445312 -0.769531 6.25 -0.75 C 7.0625 -0.726562 7.863281 -0.519531 8.65625 -0.125 C 9.445312 0.269531 10.128906 0.816406 10.703125 1.515625 C 11.117188 1.992188 11.425781 2.476562 11.625 2.96875 C 11.820312 3.46875 11.890625 3.921875 11.828125 4.328125 C 11.742188 5.085938 11.367188 5.609375 10.703125 5.890625 C 10.242188 6.085938 9.703125 6.117188 9.078125 5.984375 C 8.460938 5.859375 7.820312 5.578125 7.15625 5.140625 C 6.1875 4.460938 5.441406 3.769531 4.921875 3.0625 C 4.398438 2.351562 4.035156 1.753906 3.828125 1.265625 C 3.617188 1.410156 3.441406 1.5625 3.296875 1.71875 C 2.878906 2.207031 2.738281 2.769531 2.875 3.40625 C 2.988281 4.113281 3.269531 4.695312 3.71875 5.15625 C 4.175781 5.625 4.628906 5.976562 5.078125 6.21875 Z M 6.21875 0.703125 C 5.863281 0.679688 5.507812 0.707031 5.15625 0.78125 C 5.351562 1.175781 5.671875 1.660156 6.109375 2.234375 C 6.546875 2.816406 7.175781 3.382812 8 3.9375 C 8.476562 4.269531 8.90625 4.476562 9.28125 4.5625 C 9.65625 4.644531 9.945312 4.648438 10.15625 4.578125 C 10.175781 4.546875 10.21875 4.492188 10.28125 4.421875 C 10.351562 4.359375 10.390625 4.253906 10.390625 4.109375 C 10.421875 3.992188 10.398438 3.832031 10.328125 3.625 C 10.273438 3.457031 10.1875 3.269531 10.0625 3.0625 C 9.9375 2.863281 9.785156 2.65625 9.609375 2.4375 C 9.160156 1.90625 8.640625 1.488281 8.046875 1.1875 C 7.453125 0.882812 6.84375 0.722656 6.21875 0.703125 Z M 6.21875 0.703125 "/></g></g></g></svg>