<?xml version="1.0" encoding="UTF-8"?>
<!DOCTYPE svg PUBLIC "-//W3C//DTD SVG 1.1//EN" "http://www.w3.org/Graphics/SVG/1.1/DTD/svg11.dtd">
<!-- Creator: CorelDRAW -->
<svg xmlns="http://www.w3.org/2000/svg" viewBox="0 0 249.35 111.36" width="447px" height="200px">
    <defs>
      <style type="text/css">
        {`
          .fil2 {fill:none}
          .fil1 {fill:#2F2858}
          .fil0 {fill:#009846}
        `}
      </style>
    </defs>
 <g id="Layer_x0020_1">
  <metadata id="CorelCorpID_0Corel-Layer"/>
  <g id="_2461038880848">
   <g>
    <path class="fil0" d="M109.03 24.41c0.28,-0.28 0.55,-0.54 0.9,-0.86 0.42,-0.4 0.75,-0.66 1.18,-1 1.42,-1.11 2.51,-1.75 4.16,-2.49 2.35,-1.06 4.14,-3.15 5.18,-5.82 1.07,-2.73 1.42,-5.47 1.36,-8.57l-1.56 0.82c-0.55,0.25 -1.1,0.49 -1.68,0.7 -2.17,0.78 -4.59,1.87 -5.87,3.73 -1.06,1.53 -0.74,1.59 -0.42,2.52 0.11,0.31 0.21,0.59 0.29,0.9 0.37,1.34 0.47,2.9 0.27,4.36 -0.35,2.58 -0.71,1.98 -2.5,3.54 -0.23,0.2 -0.44,0.36 -0.64,0.54 -0.42,0.4 -0.84,0.81 -1.25,1.24 0.2,0.12 0.4,0.25 0.58,0.39z"/>
    <path class="fil0" d="M107.44 14.44c0,2.61 1.43,5.84 4.01,6.4 0.6,0.13 0.67,-0.36 0.8,-0.85 0.71,-2.61 0.42,-4.99 -0.59,-7.28 -0.51,-1.15 -1.92,-3.25 -2.92,-4.02 -0.02,0.02 -0.03,0.02 -0.06,0.06 -0.2,0.29 -0.76,2.18 -0.83,2.46 -0.28,1.11 -0.41,2.02 -0.41,3.23z"/>
   </g>
   <path class="fil1" d="M28.06 94.83l-2.04 6.68 -2.53 -6.51 -0.43 0 -2.46 6.51 -2.09 -6.68 -1.12 0 2.71 8.41 0.93 0 2.25 -5.98 2.31 5.98 0.93 0 2.65 -8.41 -1.11 0zm5.67 1.78c-0.94,0 -1.72,0.38 -2.22,1.03l0 -3.2 -1.02 0 0 8.8 1.02 0 0 -3.54c0,-1.22 0.85,-2.16 1.96,-2.16 1.12,0 1.74,0.74 1.74,2.05l0 3.65 1.02 0 0 -3.89c0,-1.68 -0.97,-2.74 -2.5,-2.74l0 0zm10.52 3.41c0,-1.89 -1.3,-3.41 -3.27,-3.41 -1.88,0 -3.3,1.45 -3.3,3.38 0,1.93 1.42,3.39 3.3,3.39 1.41,0 2.55,-0.78 3.1,-2.12l-1.08 0c-0.4,0.7 -1.12,1.12 -2.02,1.12 -1.22,0 -2.12,-0.79 -2.28,-1.99l5.53 0c0.01,-0.12 0.02,-0.25 0.02,-0.37zm-3.27 -2.44c1.15,0 2.03,0.71 2.25,1.87l-4.5 0c0.21,-1.13 1.08,-1.87 2.25,-1.87l0 0zm7.76 -0.86c-0.93,0 -1.61,0.35 -2.07,1.01l-0.17 -0.98 -0.72 0 0 6.49 1.02 0 0 -3.53c0,-1.26 0.67,-2.03 1.85,-2.03l0.66 0 0 -0.96 -0.57 0zm7.52 3.3c0,-1.89 -1.29,-3.41 -3.26,-3.41 -1.88,0 -3.31,1.45 -3.31,3.38 0,1.93 1.43,3.39 3.31,3.39 1.4,0 2.54,-0.78 3.09,-2.12l-1.07 0c-0.4,0.7 -1.12,1.12 -2.02,1.12 -1.23,0 -2.12,-0.79 -2.28,-1.99l5.52 0c0.01,-0.12 0.02,-0.25 0.02,-0.37zm-3.26 -2.44c1.15,0 2.02,0.71 2.24,1.87l-4.5 0c0.21,-1.13 1.08,-1.87 2.26,-1.87l0 0zm11.06 -2.75l-3.01 0 0 8.41 1.05 0 0 -3.03 1.96 0c1.6,0 2.79,-1.15 2.79,-2.69 0,-1.54 -1.2,-2.69 -2.79,-2.69zm-0.05 4.36l-1.91 0 0 -3.34 1.91 0c1.03,0 1.77,0.71 1.77,1.67 0,0.96 -0.74,1.67 -1.77,1.67zm9.7 -2.44l-0.13 1c-0.59,-0.71 -1.49,-1.14 -2.55,-1.14 -1.92,0 -3.36,1.44 -3.36,3.38 0,1.93 1.44,3.39 3.36,3.39 1.05,0 1.94,-0.43 2.54,-1.13l0.11 0.99 0.84 0 0 -6.49 -0.81 0zm-2.61 5.64c-1.37,0 -2.39,-1.03 -2.39,-2.4 0,-1.36 1.02,-2.39 2.39,-2.39 1.38,0 2.38,1.02 2.38,2.39 0,1.38 -1,2.4 -2.38,2.4l0 0zm8.33 0.99c1.53,0 2.77,-0.93 3.16,-2.36l-1.03 0c-0.39,0.86 -1.18,1.37 -2.13,1.37 -1.32,0 -2.32,-1.04 -2.32,-2.4 0,-1.35 0.99,-2.39 2.32,-2.39 0.95,0 1.76,0.51 2.14,1.34l1.01 0c-0.39,-1.41 -1.6,-2.33 -3.15,-2.33 -1.92,0 -3.37,1.45 -3.37,3.38 0,1.93 1.45,3.39 3.37,3.39l0 0zm8.87 -0.14l1.27 0 -2.6 -3.38 2.36 -3.11 -1.24 0 -2 2.63 -0.94 0 0 -4.94 -1.02 0 0 8.8 1.02 0 0 -2.91 0.93 0 2.22 2.91zm7.7 -6.49l-0.13 1c-0.59,-0.71 -1.49,-1.14 -2.55,-1.14 -1.92,0 -3.36,1.44 -3.36,3.38 0,1.93 1.44,3.39 3.36,3.39 1.05,0 1.94,-0.43 2.54,-1.13l0.11 0.99 0.84 0 0 -6.49 -0.81 0zm-2.61 5.64c-1.37,0 -2.39,-1.03 -2.39,-2.4 0,-1.36 1.02,-2.39 2.39,-2.39 1.38,0 2.38,1.02 2.38,2.39 0,1.38 -1,2.4 -2.38,2.4l0 0zm10.83 -5.64l-0.16 1.01c-0.59,-0.71 -1.48,-1.15 -2.52,-1.15 -1.8,0 -3.19,1.4 -3.19,3.22 0,1.81 1.39,3.2 3.19,3.2 0.95,0 1.78,-0.37 2.36,-0.96l0 0.39c0,1.44 -0.88,2.3 -2.18,2.3 -0.94,0 -1.76,-0.46 -2.05,-1.27l-1.02 0c0.36,1.37 1.48,2.2 3.07,2.2 1.97,0 3.18,-1.27 3.18,-3.36l0 -5.58 -0.68 0zm-2.57 5.3c-1.3,0 -2.26,-0.96 -2.26,-2.22 0,-1.28 0.96,-2.24 2.26,-2.24 1.3,0 2.24,0.94 2.24,2.24 0,1.28 -0.94,2.22 -2.24,2.22l0 0zm5.26 -6.42l1.11 0 0 -1.17 -1.11 0 0 1.17zm0.04 7.61l1.02 0 0 -6.49 -1.02 0 0 6.49zm6.32 -6.63c-1,0 -1.83,0.44 -2.32,1.16l-0.2 -1.02 -0.72 0 0 6.49 1.02 0 0 -3.54c0,-1.22 0.85,-2.16 1.96,-2.16 1.12,0 1.74,0.74 1.74,2.05l0 3.65 1.02 0 0 -3.89c0,-1.58 -0.97,-2.74 -2.5,-2.74l0 0zm9.82 0.14l-0.16 1.01c-0.59,-0.71 -1.49,-1.15 -2.52,-1.15 -1.8,0 -3.19,1.4 -3.19,3.22 0,1.81 1.39,3.2 3.19,3.2 0.95,0 1.78,-0.37 2.36,-0.96l0 0.39c0,1.44 -0.88,2.3 -2.18,2.3 -0.94,0 -1.76,-0.46 -2.05,-1.27l-1.02 0c0.35,1.37 1.48,2.2 3.07,2.2 1.97,0 3.18,-1.27 3.18,-3.36l0 -5.58 -0.68 0zm-2.57 5.3c-1.3,0 -2.26,-0.96 -2.26,-2.22 0,-1.28 0.96,-2.24 2.26,-2.24 1.3,0 2.24,0.94 2.24,2.24 0,1.28 -0.94,2.22 -2.24,2.22l0 0zm15.61 -5.44c-0.9,0 -1.72,0.47 -2.2,1.23 -0.35,-0.76 -1.06,-1.23 -1.98,-1.23 -0.82,0 -1.58,0.39 -2.08,1.03l-0.16 -0.89 -0.74 0 0 6.49 1.02 0 0 -3.6c0,-1.18 0.78,-2.1 1.73,-2.1 0.94,0 1.48,0.7 1.48,1.87l0 3.83 0.99 0 0 -3.6c0,-1.18 0.78,-2.1 1.73,-2.1 0.92,0 1.46,0.7 1.46,1.87l0.01 3.83 1.01 0 0 -4.15c0,-1.45 -0.9,-2.48 -2.27,-2.48l0 0zm10.3 3.41c0,-1.89 -1.3,-3.41 -3.27,-3.41 -1.88,0 -3.3,1.45 -3.3,3.38 0,1.93 1.42,3.39 3.3,3.39 1.41,0 2.55,-0.78 3.1,-2.12l-1.08 0c-0.4,0.7 -1.12,1.12 -2.02,1.12 -1.22,0 -2.12,-0.79 -2.28,-1.99l5.53 0c0.01,-0.12 0.02,-0.25 0.02,-0.37zm-3.27 -2.44c1.15,0 2.03,0.71 2.25,1.87l-4.51 0c0.22,-1.13 1.09,-1.87 2.26,-1.87l0 0zm10.85 2.44c0,-1.89 -1.29,-3.41 -3.26,-3.41 -1.88,0 -3.31,1.45 -3.31,3.38 0,1.93 1.43,3.39 3.31,3.39 1.4,0 2.54,-0.78 3.09,-2.12l-1.07 0c-0.4,0.7 -1.12,1.12 -2.02,1.12 -1.23,0 -2.12,-0.79 -2.28,-1.99l5.52 0c0.01,-0.12 0.02,-0.25 0.02,-0.37zm-3.26 -2.44c1.15,0 2.02,0.71 2.24,1.87l-4.5 0c0.21,-1.13 1.08,-1.87 2.26,-1.87l0 0zm7.4 4.71c-0.88,0 -1.36,-0.48 -1.36,-1.36l0 -3.25 2.03 0 0 -0.92 -2.03 0 0 -1.38 -0.16 0 -2 2.11 0 0.19 1.14 0 0 3.29c0,1.4 0.86,2.26 2.25,2.26l0.84 0 0 -0.94 -0.71 0zm4.12 1.09c1.54,0 2.57,-0.79 2.57,-2 0,-1.59 -1.32,-1.8 -2.44,-1.98 -0.86,-0.14 -1.61,-0.26 -1.61,-0.95 0,-0.56 0.56,-0.93 1.43,-0.93 0.92,0 1.47,0.39 1.5,1.09l0.97 0c-0.04,-1.22 -0.98,-2 -2.44,-2 -1.47,0 -2.44,0.76 -2.44,1.88 0,1.46 1.23,1.69 2.34,1.88 0.88,0.15 1.68,0.3 1.68,1.05 0,0.64 -0.64,1.01 -1.52,1.01 -0.91,0 -1.57,-0.41 -1.63,-1.18l-1 0c0.06,1.3 1.06,2.12 2.59,2.12l0 0.01zm10.38 -8.55l-3.01 0 0 8.41 1.05 0 0 -3.03 1.96 0c1.6,0 2.79,-1.15 2.79,-2.69 0,-1.54 -1.2,-2.69 -2.79,-2.69zm-0.05 4.36l-1.91 0 0 -3.34 1.91 0c1.03,0 1.77,0.71 1.77,1.67 0,0.96 -0.74,1.67 -1.77,1.67zm10.23 0.83c0,-1.89 -1.3,-3.41 -3.26,-3.41 -1.88,0 -3.31,1.45 -3.31,3.38 0,1.93 1.43,3.39 3.31,3.39 1.4,0 2.54,-0.78 3.09,-2.12l-1.08 0c-0.39,0.7 -1.12,1.12 -2.01,1.12 -1.23,0 -2.12,-0.79 -2.29,-1.99l5.53 0c0.01,-0.12 0.02,-0.25 0.02,-0.37zm-3.26 -2.44c1.14,0 2.02,0.71 2.24,1.87l-4.5 0c0.21,-1.13 1.08,-1.87 2.26,-1.87l0 0zm13.08 -0.83l-2.02 0 0 -0.46c0,-0.92 0.36,-1.27 1.28,-1.27l0.73 0 0 -0.82 -0.92 0c-1.45,0 -2.08,0.68 -2.08,2.07l0 0.48 -1.27 0 0 0.88 1.27 0 0 5.61 1.02 0 0 -5.61 1.99 0 0 -0.88zm-7.39 1.01l-0.17 -1.01 -0.73 0 0 6.49 1.02 0 0 -3.52c0,-1.23 0.67,-2 1.86,-2.02l0.66 0 0 -0.94 -0.58 0c-0.93,-0.01 -1.61,0.35 -2.06,1l0 0zm14.42 2.26c0,-1.89 -1.29,-3.41 -3.26,-3.41 -1.88,0 -3.31,1.45 -3.31,3.38 0,1.93 1.43,3.39 3.31,3.39 1.4,0 2.54,-0.78 3.09,-2.12l-1.07 0c-0.4,0.7 -1.12,1.12 -2.02,1.12 -1.23,0 -2.12,-0.79 -2.28,-1.99l5.52 0c0.01,-0.12 0.02,-0.25 0.02,-0.37zm-3.26 -2.44c1.15,0 2.02,0.71 2.24,1.87l-4.5 0c0.21,-1.13 1.08,-1.87 2.26,-1.87l0 0zm7.64 5.8c1.54,0 2.77,-0.93 3.17,-2.36l-1.03 0c-0.4,0.86 -1.18,1.37 -2.14,1.37 -1.31,0 -2.32,-1.04 -2.32,-2.4 0,-1.35 0.99,-2.39 2.32,-2.39 0.96,0 1.76,0.51 2.15,1.34l1.01 0c-0.4,-1.41 -1.61,-2.33 -3.16,-2.33 -1.91,0 -3.36,1.45 -3.36,3.38 0,1.93 1.45,3.39 3.36,3.39l0 0zm7.28 -1.09c-0.88,0 -1.36,-0.48 -1.36,-1.36l0 -3.25 2.03 0 0 -0.92 -2.03 0 0 -1.38 -0.16 0 -2 2.11 0 0.19 1.14 0 0 3.29c0,1.4 0.85,2.26 2.25,2.26l0.84 0 0 -0.94 -0.71 0zm2.02 -6.66l1.11 0 0 -1.17 -1.11 0 0 1.17zm0.04 7.61l1.02 0 0 -6.49 -1.02 0 0 6.49zm6 0.14c1.97,0 3.44,-1.44 3.44,-3.39 0,-1.94 -1.47,-3.38 -3.44,-3.38 -1.96,0 -3.43,1.43 -3.43,3.38 0,1.95 1.47,3.39 3.43,3.39zm0 -0.99c-1.39,0 -2.39,-1.01 -2.39,-2.4 0,-1.38 1,-2.39 2.39,-2.39 1.39,0 2.4,1.01 2.4,2.39 0,1.39 -1.01,2.4 -2.4,2.4l0 0zm8.23 -5.78c-1,0 -1.83,0.44 -2.32,1.16l-0.2 -1.02 -0.72 0 0 6.49 1.02 0 0 -3.54c0,-1.22 0.85,-2.16 1.96,-2.16 1.12,0 1.74,0.74 1.74,2.05l0 3.65 1.02 0 0 -3.89c0,-1.58 -0.96,-2.74 -2.5,-2.74l0 0z"/>
   <g>
    <path class="fil2" d="M28.99 19.87c0.11,0 0.21,0 0.32,0.01l0.01 0c0.1,0 0.21,0 0.31,0.01l0.02 0 0 0c0.1,0 0.2,0.01 0.3,0.01l0.02 0 0.02 0c0.2,0.02 0.4,0.03 0.6,0.05l0.04 0.01c0.09,0.01 0.18,0.02 0.27,0.03l0.05 0c0.08,0.02 0.16,0.03 0.24,0.04l0.07 0.01 0.24 0.04 0.06 0.01c0.09,0.01 0.17,0.03 0.25,0.04l0.04 0.01c0.08,0.01 0.16,0.03 0.24,0.05l0.08 0.01 0.21 0.05 0.08 0.02 0.21 0.05 0.07 0.02 0.2 0.06 0.09 0.02c0.06,0.02 0.13,0.04 0.2,0.06l0.07 0.03 0.2 0.06 0.08 0.03 0.19 0.07 0.08 0.03 0.18 0.06 0.11 0.05 0.15 0.06 0.12 0.05 0.12 0.06 0.16 0.07 0.1 0.04 0.13 0.07 0.11 0.05 0.16 0.08 0.09 0.05 0.15 0.09 0.07 0.03 0.18 0.11 0.05 0.03c0.05,0.03 0.11,0.07 0.17,0.11l0.06 0.03c0.06,0.04 0.12,0.08 0.18,0.12l0 0 0.11 0.07 0.11 0.08 0.1 0.08 0.1 0.07 0.05 0.04c0.06,0.04 0.11,0.08 0.17,0.12l0.1 0.09 0.1 0.08 0.1 0.08 0.1 0.09 0.1 0.09 0.01 0 0.09 0.08c2.04,-1.88 4.93,-2.96 8.39,-2.96 7.08,0 11.79,4.52 11.79,11.3l0 14.5 -6.78 0 0 -13.74c0,-3.56 -1.88,-5.69 -5.01,-5.69 -3.15,0 -4.98,2.18 -4.98,5.69l0 13.74 -0.04 0 -6.75 0 -0.03 0 0 -13.74c0,-3.51 -1.84,-5.69 -4.98,-5.69 -3.13,0 -5.01,2.13 -5.01,5.69l0 13.74 -6.79 0 0 -14.5c0,-6.78 4.72,-11.3 11.8,-11.3zm132.12 58.78c2.22,0 4.27,-0.49 6.07,-1.38l0 0.86 6.74 0 0 -9.65c0.03,-0.14 0.06,-0.27 0.08,-0.42l-0.08 0 0 -5.63 0 0 0 -0.01 0 -0.08 -0.02 0c-1.26,-6.13 -6.28,-10.2 -12.75,-10.2 -7.62,0 -13.36,5.65 -13.36,13.17 0,7.53 5.77,13.34 13.32,13.34zm6.48 -10.59l-0.01 0.03 -0.02 0.04 0 0.01 -0.03 0.06 0 0 0 0 -0.03 0.06 -0.02 0.04 -0.01 0.03 -0.01 0.02 -0.03 0.05 0 0 -0.02 0.05 -0.01 0.01 -0.02 0.04 -0.01 0.03 -0.02 0.02 -0.02 0.04 -0.01 0.01 -0.02 0.05 0 0 -0.03 0.05 -0.01 0.02 -0.02 0.03 -0.02 0.03 -0.01 0.02 -0.03 0.04 0 0.01c-0.67,1.08 -1.62,1.96 -2.76,2.53 -0.96,0.58 -2.07,0.89 -3.31,0.89 -2.55,0 -4.7,-1.49 -5.75,-3.73 -0.53,-0.97 -0.83,-2.09 -0.83,-3.27 0,-1.97 0.84,-3.75 2.18,-5 0.65,-0.63 1.44,-1.12 2.32,-1.42 0.73,-0.26 1.51,-0.41 2.33,-0.41 2.75,0 5.13,1.63 6.21,3.98l0 0.01c0.4,0.86 0.62,1.83 0.62,2.84 0,1 -0.21,1.94 -0.6,2.79zm23.41 10.59c6.57,0 11.71,-4.28 12.89,-10.59l-6.83 0c-1.15,2.68 -3.32,4.21 -6.06,4.21 -3.63,0 -6.44,-3.03 -6.44,-6.92 0,-3.89 2.76,-6.84 6.44,-6.84 2.71,0 4.97,1.45 6.07,3.92l6.74 0c-1.23,-6.18 -6.27,-10.29 -12.77,-10.29 -7.62,0 -13.36,5.65 -13.36,13.17 0,7.53 5.77,13.34 13.32,13.34zm-58.75 1.04c-2.29,0 -4.42,-0.5 -6.28,-1.42l0 11.55 -6.98 0 0 -20.65c-0.03,-0.15 -0.06,-0.29 -0.09,-0.44l0.09 0 0 -5.84 0 0 0 0 0 -0.08 0.02 0c1.3,-6.35 6.5,-10.57 13.2,-10.57 7.9,0 13.84,5.86 13.84,13.65 0,7.79 -5.97,13.8 -13.8,13.8zm-6.67 -10.87l0.02 0.05 0 0 0.03 0.05c0.06,0.13 0.12,0.25 0.19,0.37l0.03 0.06 0 0 0.03 0.05 0.06 0.1 0.03 0.04 0 0.01 0 0c0.69,1.12 1.68,2.03 2.86,2.62 0.99,0.6 2.15,0.92 3.42,0.92 2.65,0 4.87,-1.55 5.96,-3.86 0.55,-1.01 0.86,-2.16 0.86,-3.39 0,-2.04 -0.87,-3.88 -2.26,-5.18 -0.67,-0.65 -1.49,-1.16 -2.4,-1.47 -0.75,-0.27 -1.57,-0.42 -2.41,-0.42 -2.82,0 -5.26,1.65 -6.39,4.04l-0.02 0.04 -0.02 0.04 0 0c-0.42,0.9 -0.65,1.9 -0.65,2.95 0,1.07 0.24,2.07 0.66,2.98zm-51.4 -22.67c2.22,0 4.27,-0.49 6.07,-1.37l0 0.86 6.73 0 0 -9.65c0.03,-0.14 0.06,-0.28 0.09,-0.42l-0.09 0 0 -5.64 0 0 0 0 0 -0.09 -0.01 0c-1.26,-6.12 -6.28,-10.2 -12.75,-10.2 -7.62,0 -13.36,5.66 -13.36,13.18 0,7.52 5.77,13.33 13.32,13.33zm6.48 -10.58l-0.01 0.03 -0.02 0.04 0 0.01 -0.03 0.05 0 0 -0.02 0.05 -0.01 0.02 -0.03 0.06 0 0.01 -0.01 0.02 -0.03 0.04 0 0.01 -0.03 0.06 -0.02 0.04 -0.02 0.02 -0.01 0.03 -0.02 0.04 -0.01 0.01 -0.03 0.05 0 0 -0.03 0.05 0 0.01 -0.03 0.04 -0.01 0.03 -0.04 0.06 0 0.01c-0.67,1.07 -1.62,1.95 -2.76,2.52 -0.96,0.59 -2.08,0.9 -3.31,0.9 -2.55,0 -4.7,-1.5 -5.75,-3.74 -0.53,-0.97 -0.83,-2.08 -0.83,-3.26 0,-1.98 0.84,-3.76 2.18,-5 0.65,-0.64 1.43,-1.12 2.31,-1.42 0.73,-0.27 1.52,-0.41 2.34,-0.41 2.75,0 5.13,1.63 6.21,3.98l0 0c0.4,0.87 0.62,1.83 0.62,2.85 0,0.99 -0.22,1.94 -0.6,2.79zm106.41 -15.7c3.54,0 6.47,1.12 8.52,3.09 2.06,-1.97 4.99,-3.09 8.52,-3.09 7.08,0 11.8,4.52 11.8,11.3l0 14.5 -0.01 0 0 19.03 7.53 -11.15 7.82 0 -8.49 11.95 9.4 13.15 -8.22 0 -8.04 -12.01 0 12.01 -6.78 0 0 -34.14 0 0 0 -12.58c0,-3.56 -1.88,-5.69 -5.01,-5.69 -3.14,0 -4.98,2.18 -4.98,5.69l0 13.74 -0.29 0 -6.49 0 -0.3 0 0 -13.74c0,-3.51 -1.83,-5.69 -4.98,-5.69 -3.13,0 -5.01,2.13 -5.01,5.69l0 13.74 -6.78 0 0 -14.5c0,-6.78 4.71,-11.3 11.79,-11.3zm-26.88 25.8c-7.1,0 -11.77,-4.52 -11.77,-11.3l0 -13.83 6.78 0 0 13.07c0,3.51 1.84,5.69 4.99,5.69 3.13,0 5.01,-2.13 5.01,-5.69l0 -13.07 6.78 0 0 13.83c0,6.78 -4.71,11.3 -11.79,11.3zm-26.86 -25.8c-7.1,0 -11.77,4.52 -11.77,11.3l0 14.5 6.79 0 0 -13.74c0,-3.51 1.84,-5.69 4.98,-5.69 3.13,0 5.01,2.13 5.01,5.69l0 13.74 6.79 0 0 -14.5c0,-6.78 -4.72,-11.3 -11.8,-11.3zm-29.73 -0.12c-7.44,0 -13.24,5.93 -13.24,13.38 0,7.49 5.8,13.32 13.24,13.32 2.88,0 5.5,-0.86 7.62,-2.36l0 0.98c0,3.9 -3.03,6.26 -6.67,6.26 -2.66,0 -5.48,-1.23 -6.29,-3.63l-7.16 0c1.22,6.09 6.35,9.79 13.57,9.79 8.42,0 13.6,-5.11 13.6,-13.45l0 -10.8c0.15,-10.1 -7.27,-13.62 -14.67,-13.49zm0.86 20.27c-3.97,0 -6.81,-2.91 -6.81,-6.89 0,-3.96 2.88,-6.87 6.81,-6.87 3.97,0 6.79,2.9 6.79,6.87 0,3.99 -2.86,6.89 -6.79,6.89zm-67.85 -17.82c0.06,0.04 0.11,0.08 0.17,0.12l-0.17 -0.12z"/>
   </g>
  </g>
  <rect class="fil3" width="249.35" height="111.36"/>
 </g>
</svg>
