<?xml version="1.0" encoding="UTF-8"?>
<!DOCTYPE svg PUBLIC "-//W3C//DTD SVG 1.1//EN" "http://www.w3.org/Graphics/SVG/1.1/DTD/svg11.dtd">
<!-- Creator: CorelDRAW -->
 <svg xmlns="http://www.w3.org/2000/svg" viewBox="0 0 249.35 111.36" width="447px" height="200px">
    <defs>
      <style type="text/css">
        {`
          .fil2 {fill:none}
          .fil1 {fill:#2F2858}
          .fil0 {fill:#009846}
        `}
      </style>
    </defs>
 <g id="Layer_x0020_1">
  <metadata id="CorelCorpID_0Corel-Layer"/>
  <g id="_2497832566992">
   <g>
    <g>
     <path class="fil0" d="M109.03 32.35c0.28,-0.29 0.55,-0.54 0.9,-0.87 0.42,-0.4 0.75,-0.65 1.18,-0.99 1.42,-1.11 2.51,-1.75 4.16,-2.5 2.35,-1.05 4.14,-3.15 5.18,-5.82 1.07,-2.73 1.42,-5.47 1.36,-8.56l-1.56 0.81c-0.55,0.26 -1.1,0.49 -1.68,0.7 -2.17,0.78 -4.59,1.88 -5.87,3.73 -1.06,1.53 -0.74,1.6 -0.42,2.52 0.11,0.31 0.21,0.59 0.29,0.9 0.37,1.34 0.47,2.91 0.27,4.37 -0.35,2.57 -0.71,1.98 -2.5,3.53 -0.23,0.2 -0.44,0.36 -0.64,0.55 -0.42,0.39 -0.84,0.81 -1.25,1.23 0.2,0.12 0.4,0.25 0.58,0.4z"/>
     <path class="fil0" d="M107.44 22.37c0,2.61 1.43,5.84 4.01,6.4 0.6,0.14 0.67,-0.36 0.8,-0.84 0.71,-2.62 0.42,-4.99 -0.59,-7.29 -0.51,-1.15 -1.92,-3.25 -2.92,-4.02 -0.02,0.02 -0.03,0.02 -0.06,0.07 -0.2,0.29 -0.76,2.17 -0.83,2.45 -0.28,1.11 -0.41,2.02 -0.41,3.23z"/>
    </g>
    <g>
     <path class="fil1" d="M28.99 27.81c0.11,0 0.21,0 0.32,0l0.01 0c0.1,0 0.21,0 0.31,0.01l0.02 0 0 0c0.1,0 0.2,0.01 0.3,0.01l0.02 0.01 0.02 0c0.2,0.01 0.4,0.03 0.6,0.05l0.04 0c0.09,0.01 0.18,0.02 0.27,0.03l0.05 0.01c0.08,0.01 0.16,0.02 0.24,0.03l0.07 0.01 0.24 0.04 0.06 0.01c0.09,0.01 0.17,0.03 0.25,0.04l0.04 0.01c0.08,0.02 0.16,0.03 0.24,0.05l0.08 0.02 0.21 0.05 0.08 0.02 0.21 0.05 0.07 0.02 0.2 0.05 0.09 0.03c0.06,0.02 0.13,0.04 0.2,0.06l0.07 0.02 0.2 0.07 0.08 0.02 0.19 0.07 0.08 0.03 0.18 0.07 0.11 0.04 0.15 0.06 0.12 0.05 0.12 0.06 0.16 0.07 0.1 0.05 0.13 0.06 0.11 0.06 0.16 0.08 0.09 0.04 0.15 0.09 0.07 0.04 0.18 0.1 0.05 0.03c0.05,0.04 0.11,0.07 0.17,0.11l0.06 0.04c0.06,0.03 0.12,0.07 0.18,0.11l0 0 0.11 0.08 0.11 0.07 0.1 0.08 0.1 0.07 0.05 0.04c0.06,0.04 0.11,0.08 0.17,0.13l0.1 0.08 0.1 0.08 0.1 0.09 0.1 0.08 0.1 0.09 0.01 0.01 0.09 0.08c2.04,-1.89 4.93,-2.96 8.39,-2.96 7.08,0 11.79,4.51 11.79,11.29l0 14.5 -6.78 0 0 -13.73c0,-3.57 -1.88,-5.7 -5.01,-5.7 -3.15,0 -4.98,2.18 -4.98,5.7l0 13.73 -0.04 0 -6.75 0 -0.03 0 0 -13.73c0,-3.52 -1.84,-5.7 -4.98,-5.7 -3.13,0 -5.01,2.13 -5.01,5.7l0 13.73 -6.79 0 0 -14.5c0,-6.78 4.72,-11.29 11.8,-11.29zm132.12 58.77c2.22,0 4.27,-0.49 6.07,-1.38l0 0.87 6.74 0 0 -9.65c0.03,-0.14 0.06,-0.28 0.08,-0.42l-0.08 0 0 -5.64 0 0 0 0 0 -0.09 -0.02 0c-1.26,-6.12 -6.28,-10.2 -12.75,-10.2 -7.62,0 -13.36,5.66 -13.36,13.18 0,7.52 5.77,13.33 13.32,13.33zm6.48 -10.58l-0.01 0.02 -0.02 0.04 0 0.02 -0.03 0.05 0 0 0 0.01 -0.03 0.06 -0.02 0.03 -0.01 0.03 -0.01 0.02 -0.03 0.05 0 0.01 -0.02 0.05 -0.01 0 -0.02 0.05 -0.01 0.02 -0.02 0.03 -0.02 0.03 -0.01 0.02 -0.02 0.05 0 0 -0.03 0.05 -0.01 0.01 -0.02 0.04 -0.02 0.02 -0.01 0.03 -0.03 0.04 0 0c-0.67,1.08 -1.62,1.96 -2.76,2.53 -0.96,0.59 -2.07,0.89 -3.31,0.89 -2.55,0 -4.7,-1.49 -5.75,-3.73 -0.53,-0.97 -0.83,-2.08 -0.83,-3.26 0,-1.98 0.84,-3.76 2.18,-5 0.65,-0.64 1.44,-1.13 2.32,-1.42 0.73,-0.27 1.51,-0.41 2.33,-0.41 2.75,0 5.13,1.63 6.21,3.98l0 0c0.4,0.87 0.62,1.83 0.62,2.85 0,0.99 -0.21,1.94 -0.6,2.79zm23.41 10.58c6.57,0 11.71,-4.28 12.89,-10.58l-6.83 0c-1.15,2.68 -3.32,4.2 -6.06,4.2 -3.63,0 -6.44,-3.02 -6.44,-6.91 0,-3.89 2.76,-6.84 6.44,-6.84 2.71,0 4.97,1.45 6.07,3.91l6.74 0c-1.23,-6.18 -6.27,-10.29 -12.77,-10.29 -7.62,0 -13.36,5.66 -13.36,13.18 0,7.52 5.77,13.33 13.32,13.33zm-58.75 1.05c-2.29,0 -4.42,-0.51 -6.28,-1.43l0 11.56 -6.98 0 0 -20.66c-0.03,-0.14 -0.06,-0.29 -0.09,-0.43l0.09 0 0 -5.84 0 0 0 -0.01 0 -0.08 0.02 0c1.3,-6.35 6.5,-10.57 13.2,-10.57 7.9,0 13.84,5.86 13.84,13.65 0,7.79 -5.97,13.81 -13.8,13.81zm-6.67 -10.88l0.02 0.05 0 0.01 0.03 0.05c0.06,0.12 0.12,0.25 0.19,0.37l0.03 0.05 0 0 0.03 0.05 0.06 0.1 0.03 0.04 0 0.01 0 0c0.69,1.12 1.68,2.03 2.86,2.62 0.99,0.6 2.15,0.92 3.42,0.92 2.65,0 4.87,-1.54 5.96,-3.86 0.55,-1.01 0.86,-2.16 0.86,-3.38 0,-2.05 -0.87,-3.89 -2.26,-5.18 -0.67,-0.66 -1.49,-1.16 -2.4,-1.47 -0.75,-0.28 -1.57,-0.43 -2.41,-0.43 -2.82,0 -5.26,1.65 -6.39,4.04l-0.02 0.04 -0.02 0.04 0 0.01c-0.42,0.9 -0.65,1.89 -0.65,2.95 0,1.06 0.24,2.07 0.66,2.97zm-51.4 -22.67c2.22,0 4.27,-0.48 6.07,-1.37l0 0.86 6.73 0 0 -9.65c0.03,-0.14 0.06,-0.28 0.09,-0.42l-0.09 0 0 -5.64 0 0 0 0 0 -0.08 -0.01 0c-1.26,-6.13 -6.28,-10.2 -12.75,-10.2 -7.62,0 -13.36,5.65 -13.36,13.17 0,7.52 5.77,13.33 13.32,13.33zm6.48 -10.58l-0.01 0.03 -0.02 0.04 0 0.01 -0.03 0.05 0 0.01 -0.02 0.05 -0.01 0.01 -0.03 0.06 0 0.01 -0.01 0.02 -0.03 0.05 0 0 -0.03 0.06 -0.02 0.04 -0.02 0.03 -0.01 0.02 -0.02 0.04 -0.01 0.01 -0.03 0.05 0 0 -0.03 0.05 0 0.02 -0.03 0.03 -0.01 0.03 -0.04 0.06 0 0.01c-0.67,1.08 -1.62,1.96 -2.76,2.53 -0.96,0.58 -2.08,0.89 -3.31,0.89 -2.55,0 -4.7,-1.49 -5.75,-3.73 -0.53,-0.97 -0.83,-2.09 -0.83,-3.27 0,-1.97 0.84,-3.75 2.18,-5 0.65,-0.63 1.43,-1.12 2.31,-1.42 0.73,-0.26 1.52,-0.41 2.34,-0.41 2.75,0 5.13,1.63 6.21,3.98l0 0c0.4,0.87 0.62,1.84 0.62,2.85 0,1 -0.22,1.94 -0.6,2.79zm106.41 -15.69c3.54,0 6.47,1.12 8.52,3.08 2.06,-1.96 4.99,-3.08 8.52,-3.08 7.08,0 11.8,4.51 11.8,11.29l0 14.5 -0.01 0 0 19.04 7.53 -11.16 7.82 0 -8.49 11.95 9.4 13.15 -8.22 0 -8.04 -12.01 0 12.01 -6.78 0 0 -34.14 0 0 0 -12.57c0,-3.57 -1.88,-5.7 -5.01,-5.7 -3.14,0 -4.98,2.18 -4.98,5.7l0 13.73 -0.29 0 -6.49 0 -0.3 0 0 -13.73c0,-3.52 -1.83,-5.7 -4.98,-5.7 -3.13,0 -5.01,2.13 -5.01,5.7l0 13.73 -6.78 0 0 -14.5c0,-6.78 4.71,-11.29 11.79,-11.29zm-26.88 25.79c-7.1,0 -11.77,-4.51 -11.77,-11.29l0 -13.83 6.78 0 0 13.06c0,3.52 1.84,5.69 4.99,5.69 3.13,0 5.01,-2.13 5.01,-5.69l0 -13.06 6.78 0 0 13.83c0,6.78 -4.71,11.29 -11.79,11.29zm-26.86 -25.79c-7.1,0 -11.77,4.51 -11.77,11.29l0 14.5 6.79 0 0 -13.73c0,-3.52 1.84,-5.7 4.98,-5.7 3.13,0 5.01,2.13 5.01,5.7l0 13.73 6.79 0 0 -14.5c0,-6.78 -4.72,-11.29 -11.8,-11.29zm-29.73 -0.13c-7.44,0 -13.24,5.93 -13.24,13.38 0,7.49 5.8,13.33 13.24,13.33 2.88,0 5.5,-0.87 7.62,-2.37l0 0.99c0,3.89 -3.03,6.25 -6.67,6.25 -2.66,0 -5.48,-1.22 -6.29,-3.62l-7.16 0c1.22,6.09 6.35,9.78 13.57,9.78 8.42,0 13.6,-5.11 13.6,-13.44l0 -10.81c0.15,-10.1 -7.27,-13.62 -14.67,-13.49zm0.86 20.28c-3.97,0 -6.81,-2.91 -6.81,-6.9 0,-3.95 2.88,-6.86 6.81,-6.86 3.97,0 6.79,2.9 6.79,6.86 0,4 -2.86,6.9 -6.79,6.9zm-67.85 -17.83c0.06,0.04 0.11,0.08 0.17,0.13l-0.17 -0.13z"/>
    </g>
   </g>
   <rect class="fil2" width="249.35" height="111.36"/>
  </g>
 </g>
</svg>
